<svg width="984" height="544" viewBox="0 0 984 544" fill="none" xmlns="http://www.w3.org/2000/svg">
<g id="DialogSvg 1" clip-path="url(#clip0)">
<g id="cards2">
<path id="Vector" d="M518.644 172.225H468.836C465.721 144.518 472.594 123.866 468.836 112.456H518.644C516.73 132.333 516.73 152.348 518.644 172.225V172.225Z" fill="#E91E63"/>
<path id="Vector_2" d="M821.644 227.225H771.836C768.721 199.518 775.594 178.866 771.836 167.456H821.644C819.73 187.333 819.73 207.348 821.644 227.225V227.225Z" fill="#673AB7"/>
</g>
<g id="cards1">
<path id="Vector_3" d="M742.417 133.789H692.609C694.477 110.807 700.498 89.347 692.609 74.0196H742.417C751.795 93.9427 751.795 113.866 742.417 133.789Z" fill="#673AB7"/>
<path id="Vector_4" d="M313.332 146.874H363.139C366.254 123.888 359.381 102.429 363.139 87.1051H313.332C303.954 107.028 303.954 126.951 313.332 146.874Z" fill="#3F3D56"/>
</g>
<g id="rest">
<path id="Vector_5" d="M882.208 284H200.208C197.822 283.997 195.534 283.048 193.847 281.361C192.16 279.674 191.211 277.386 191.208 275V9.00003C191.211 6.61391 192.16 4.32627 193.847 2.63902C195.534 0.951777 197.822 0.00271699 200.208 3.05176e-05H882.208C884.594 0.00271963 886.882 0.951793 888.569 2.63904C890.256 4.32628 891.205 6.61391 891.208 9.00003V275C891.205 277.386 890.256 279.674 888.569 281.361C886.882 283.048 884.594 283.997 882.208 284ZM200.208 2.00003C198.352 2.00219 196.573 2.74037 195.261 4.05266C193.949 5.36494 193.21 7.14418 193.208 9.00003V275C193.21 276.856 193.949 278.635 195.261 279.947C196.573 281.26 198.352 281.998 200.208 282H882.208C884.064 281.998 885.843 281.26 887.156 279.947C888.468 278.635 889.206 276.856 889.208 275V9.00003C889.206 7.14418 888.468 5.36496 887.156 4.05267C885.843 2.74039 884.064 2.0022 882.208 2.00003H200.208Z" fill="#3F3D56"/>
<path id="Vector_6" d="M50.6436 425.225H0.835901C-2.27922 397.518 4.59377 376.866 0.835901 365.456H50.6436C48.7297 385.333 48.7297 405.348 50.6436 425.225V425.225Z" fill="#E91E63"/>
<path id="Vector_7" d="M262.417 197.789H212.609C214.477 174.807 220.498 153.347 212.609 138.02H262.417C271.795 157.943 271.795 177.866 262.417 197.789Z" fill="#E6E6E6"/>
<path id="Vector_8" d="M302.417 274.789H252.609C254.477 251.807 260.498 230.347 252.609 215.02H302.417C311.795 234.943 311.795 254.866 302.417 274.789Z" fill="#E6E6E6"/>
<path id="Vector_9" d="M595.417 211.789H545.609C547.477 188.807 553.498 167.347 545.609 152.02H595.417C604.795 171.943 604.795 191.866 595.417 211.789Z" fill="#E6E6E6"/>
<path id="Vector_10" d="M347.208 37H254.208C253.678 37 253.169 36.7893 252.794 36.4142C252.419 36.0392 252.208 35.5305 252.208 35C252.208 34.4696 252.419 33.9609 252.794 33.5858C253.169 33.2107 253.678 33 254.208 33H347.208C347.739 33 348.247 33.2107 348.622 33.5858C348.997 33.9609 349.208 34.4696 349.208 35C349.208 35.5305 348.997 36.0392 348.622 36.4142C348.247 36.7893 347.739 37 347.208 37Z" fill="#3F3D56"/>
<path id="Vector_11" d="M588.208 37H495.208C494.678 37 494.169 36.7893 493.794 36.4142C493.419 36.0392 493.208 35.5305 493.208 35C493.208 34.4696 493.419 33.9609 493.794 33.5858C494.169 33.2107 494.678 33 495.208 33H588.208C588.739 33 589.247 33.2107 589.622 33.5858C589.997 33.9609 590.208 34.4696 590.208 35C590.208 35.5305 589.997 36.0392 589.622 36.4142C589.247 36.7893 588.739 37 588.208 37Z" fill="#3F3D56"/>
<path id="Vector_12" d="M829.208 37H736.208C735.678 37 735.169 36.7893 734.794 36.4142C734.419 36.0392 734.208 35.5305 734.208 35C734.208 34.4696 734.419 33.9609 734.794 33.5858C735.169 33.2107 735.678 33 736.208 33H829.208C829.739 33 830.247 33.2107 830.622 33.5858C830.997 33.9609 831.208 34.4696 831.208 35C831.208 35.5305 830.997 36.0392 830.622 36.4142C830.247 36.7893 829.739 37 829.208 37Z" fill="#3F3D56"/>
<path id="Vector_13" d="M422.208 1H420.208V283H422.208V1Z" fill="#3F3D56"/>
<path id="Vector_14" d="M663.208 1H661.208V283H663.208V1Z" fill="#3F3D56"/>
<path id="Vector_15" d="M158.619 261.672C188.177 261.672 212.139 237.71 212.139 208.152C212.139 178.595 188.177 154.633 158.619 154.633C129.062 154.633 105.1 178.595 105.1 208.152C105.1 237.71 129.062 261.672 158.619 261.672Z" fill="#673AB7"/>
<path id="Vector_16" d="M150.187 543.498H135.427C133.704 543.496 132.052 542.811 130.833 541.592C129.615 540.373 128.929 538.721 128.927 536.998V413.984C128.929 412.261 129.615 410.609 130.833 409.39C132.052 408.172 133.704 407.486 135.427 407.484H150.187C151.91 407.486 153.562 408.172 154.781 409.39C155.999 410.609 156.685 412.261 156.687 413.984V536.998C156.685 538.721 155.999 540.373 154.781 541.592C153.562 542.811 151.91 543.496 150.187 543.498V543.498Z" fill="#673AB7"/>
<path id="Vector_17" d="M179.379 543.498H164.619C162.896 543.496 161.244 542.811 160.025 541.592C158.807 540.373 158.121 538.721 158.119 536.998V413.984C158.121 412.261 158.807 410.609 160.025 409.39C161.244 408.172 162.896 407.486 164.619 407.484H179.379C181.102 407.486 182.754 408.172 183.973 409.39C185.192 410.609 185.877 412.261 185.879 413.984V536.998C185.877 538.721 185.192 540.373 183.973 541.592C182.754 542.811 181.102 543.496 179.379 543.498Z" fill="#673AB7"/>
<path id="Vector_18" d="M41.2028 389.924C40.5224 389.923 39.8462 389.816 39.1989 389.606C38.3854 389.346 37.6317 388.927 36.9813 388.374C36.3308 387.82 35.7967 387.143 35.4098 386.382L28.6852 373.243C28.2963 372.483 28.0609 371.654 27.9924 370.804C27.9239 369.953 28.0237 369.097 28.286 368.284C28.5484 367.472 28.9682 366.72 29.5214 366.07C30.0746 365.42 30.7505 364.885 31.5104 364.496L141.014 308.448C141.774 308.059 142.603 307.824 143.454 307.755C144.305 307.687 145.161 307.787 145.973 308.049C146.785 308.311 147.538 308.731 148.188 309.284C148.838 309.838 149.373 310.513 149.762 311.273L156.486 324.412C157.272 325.947 157.415 327.73 156.886 329.371C156.356 331.011 155.197 332.374 153.662 333.159L44.1579 389.207C43.2437 389.677 42.2307 389.923 41.2028 389.924V389.924Z" fill="#673AB7"/>
<path id="Vector_19" d="M191.565 332.87C190.018 332.872 188.523 332.318 187.35 331.31L176.133 321.718C174.825 320.596 174.015 319.001 173.881 317.283C173.747 315.565 174.299 313.864 175.418 312.553L255.366 219.061C256.488 217.752 258.082 216.942 259.801 216.808C261.519 216.674 263.22 217.227 264.53 218.346H264.531L275.748 227.939C276.397 228.493 276.93 229.17 277.317 229.931C277.704 230.692 277.938 231.521 278.004 232.372C278.071 233.223 277.969 234.079 277.704 234.891C277.44 235.702 277.018 236.454 276.464 237.103L196.515 330.595C195.962 331.245 195.285 331.779 194.524 332.167C193.763 332.554 192.933 332.786 192.081 332.851C191.908 332.864 191.736 332.87 191.565 332.87Z" fill="#673AB7"/>
<path id="Vector_20" d="M160.537 154.626C158.796 137.267 147.387 120.667 129.971 116.149C121.472 113.893 112.449 114.711 104.496 118.46C97.2954 122.092 91.6347 128.184 88.5399 135.631C85.4862 142.998 84.317 151.01 85.138 158.942C86.0678 167.611 88.8351 175.983 93.2554 183.498C97.9795 191.827 104.123 199.272 110.57 206.313C117.14 213.486 124.573 220.086 130.101 228.14C135.004 235.282 138.946 244.982 134.114 253.203C132.221 256.217 129.499 258.622 126.274 260.128C123.049 261.635 119.458 262.179 115.931 261.697C114.201 261.434 112.528 260.879 110.985 260.055C109.282 259.146 107.765 261.735 109.47 262.645C115.941 266.1 123.985 265.317 130.098 261.432C137.143 256.955 140.288 249.053 138.968 240.884C137.462 231.571 130.968 223.575 124.732 216.871C118.219 209.868 111.397 203.182 105.364 195.743C99.4048 188.394 94.0842 180.284 90.8945 171.325C88.2153 163.839 87.3216 155.83 88.2845 147.938C89.2348 140.4 92.1656 132.932 97.4239 127.355C100.331 124.36 103.811 121.98 107.656 120.357C111.502 118.735 115.635 117.902 119.809 117.91C128.472 117.799 136.871 120.887 143.399 126.583C149.836 132.34 154.378 139.913 156.427 148.302C156.951 150.38 157.322 152.494 157.537 154.626C157.728 156.529 160.73 156.549 160.537 154.626V154.626Z" fill="#2F2E41"/>
<path id="Vector_21" d="M149.261 154.218C147.954 154.216 146.691 153.749 145.697 152.901C144.702 152.052 144.043 150.878 143.836 149.587C143.629 148.296 143.889 146.974 144.568 145.858C145.247 144.741 146.302 143.903 147.543 143.493L161.787 138.79C163.172 138.333 164.682 138.444 165.984 139.1C167.287 139.756 168.276 140.903 168.733 142.288C169.191 143.673 169.079 145.183 168.423 146.486C167.767 147.788 166.62 148.777 165.235 149.234L150.992 153.937C150.434 154.123 149.849 154.217 149.261 154.218Z" fill="#E91E63"/>
<path id="Vector_22" d="M245.425 429.5H78.944C77.8014 429.504 76.6779 429.207 75.6873 428.637C74.6967 428.068 73.8741 427.246 73.3028 426.257C72.7315 425.267 72.4317 424.145 72.4338 423.002C72.4358 421.859 72.7397 420.737 73.3146 419.75L156.555 275.573C156.843 275.074 157.194 274.614 157.601 274.206L157.617 274.19L157.624 274.184C158.536 273.278 159.699 272.669 160.963 272.436C161.047 272.42 161.132 272.405 161.216 272.394C161.537 272.346 161.861 272.323 162.185 272.323V272.323C163.327 272.316 164.451 272.614 165.44 273.185C166.429 273.756 167.248 274.581 167.814 275.573L251.054 419.75C251.625 420.738 251.925 421.859 251.925 423C251.925 424.141 251.625 425.262 251.054 426.25C250.484 427.238 249.663 428.059 248.675 428.629C247.687 429.2 246.566 429.5 245.425 429.5V429.5Z" fill="#2F2E41"/>
<path id="Vector_23" d="M198.445 216.945L198.39 214.945C202.11 214.841 205.391 214.608 207.855 212.807C208.554 212.267 209.129 211.584 209.54 210.802C209.95 210.021 210.188 209.16 210.237 208.279C210.28 207.74 210.199 207.199 209.999 206.697C209.799 206.195 209.486 205.746 209.084 205.384C207.448 204.001 204.815 204.449 202.896 205.329L201.241 206.088L204.415 182.898L206.396 183.169L203.697 202.896C206.305 202.129 208.72 202.458 210.375 203.857C211.01 204.412 211.509 205.106 211.832 205.885C212.154 206.664 212.293 207.508 212.235 208.349C212.177 209.533 211.86 210.691 211.307 211.74C210.755 212.789 209.979 213.704 209.035 214.422C205.868 216.737 201.752 216.852 198.445 216.945Z" fill="#2F2E41"/>
<path id="Vector_24" d="M192.967 184.87H182.195V186.87H192.967V184.87Z" fill="#2F2E41"/>
<path id="Vector_25" d="M925.544 341.731L822.275 274.888C821.558 274.424 820.94 273.824 820.455 273.121C819.97 272.419 819.629 271.627 819.45 270.793C819.271 269.958 819.259 269.096 819.413 268.257C819.567 267.417 819.886 266.616 820.35 265.9L828.37 253.509C829.307 252.064 830.78 251.049 832.465 250.688C834.15 250.327 835.91 250.649 837.358 251.583L940.627 318.426C942.073 319.364 943.087 320.838 943.448 322.523C943.809 324.208 943.487 325.967 942.553 327.415L934.533 339.806C933.595 341.252 932.122 342.267 930.436 342.628C928.751 342.988 926.991 342.666 925.544 341.731V341.731Z" fill="#673AB7"/>
<path id="Vector_26" d="M925.847 340.903L882.677 316.798C881.331 316.047 880.326 314.805 879.87 313.332C879.415 311.859 879.544 310.267 880.231 308.886L890.232 288.794C890.627 288 891.193 287.304 891.889 286.755C892.586 286.206 893.395 285.818 894.259 285.62C895.123 285.421 896.02 285.416 896.886 285.606C897.752 285.795 898.566 286.175 899.268 286.716L940.393 318.437C941.727 319.303 942.663 320.662 942.996 322.217C943.33 323.772 943.034 325.395 942.173 326.732L934.152 339.125C933.285 340.461 931.924 341.399 930.367 341.732C928.81 342.065 927.184 341.767 925.847 340.903V340.903Z" fill="#CCCCCC"/>
<path id="Vector_27" d="M930.047 263.456C959.604 263.456 983.566 239.495 983.566 209.937C983.566 180.379 959.604 156.418 930.047 156.418C900.489 156.418 876.527 180.379 876.527 209.937C876.527 239.495 900.489 263.456 930.047 263.456Z" fill="#673AB7"/>
<path id="Vector_28" d="M931.979 536.783V413.768C931.981 412.045 932.667 410.393 933.885 409.174C935.104 407.955 936.756 407.27 938.479 407.268H953.239C954.962 407.27 956.615 407.955 957.833 409.174C959.052 410.393 959.737 412.045 959.739 413.768V536.783C959.737 538.506 959.052 540.158 957.833 541.377C956.615 542.595 954.962 543.281 953.239 543.283H938.479C936.756 543.281 935.104 542.595 933.885 541.377C932.667 540.158 931.981 538.506 931.979 536.783V536.783Z" fill="#2F2E41"/>
<path id="Vector_29" d="M902.787 536.783V413.768C902.789 412.045 903.474 410.393 904.693 409.174C905.912 407.955 907.564 407.27 909.287 407.268H924.047C925.77 407.27 927.422 407.955 928.641 409.174C929.859 410.393 930.545 412.045 930.547 413.768V536.783C930.545 538.506 929.859 540.158 928.641 541.377C927.422 542.595 925.77 543.281 924.047 543.283H909.287C907.564 543.281 905.912 542.595 904.693 541.377C903.474 540.158 902.789 538.506 902.787 536.783V536.783Z" fill="#2F2E41"/>
<path id="Vector_30" d="M890.623 421.23V278.754C890.625 277.031 891.311 275.379 892.529 274.16C893.748 272.942 895.4 272.256 897.123 272.254H934.809C944.321 272.265 953.44 276.048 960.166 282.774C966.892 289.5 970.675 298.619 970.686 308.131V421.23C970.684 422.953 969.999 424.605 968.78 425.824C967.561 427.042 965.909 427.728 964.186 427.73H897.123C895.4 427.728 893.748 427.042 892.529 425.824C891.311 424.605 890.625 422.953 890.623 421.23Z" fill="#CCCCCC"/>
<path id="Vector_31" d="M883.331 224.806L883.387 222.806C879.666 222.703 876.386 222.469 873.921 220.668C873.222 220.129 872.648 219.445 872.237 218.664C871.826 217.882 871.588 217.022 871.54 216.14C871.497 215.601 871.578 215.06 871.778 214.558C871.978 214.056 872.291 213.607 872.693 213.245C874.328 211.863 876.961 212.31 878.881 213.191L880.536 213.95L877.362 190.759L875.381 191.031L878.08 210.757C875.472 209.991 873.057 210.32 871.402 211.718C870.766 212.273 870.268 212.967 869.945 213.746C869.622 214.525 869.484 215.369 869.541 216.21C869.6 217.395 869.916 218.552 870.469 219.601C871.022 220.65 871.798 221.566 872.742 222.284C875.909 224.598 880.024 224.713 883.331 224.806Z" fill="#2F2E41"/>
<path id="Vector_32" d="M899.581 192.732H888.81V194.732H899.581V192.732Z" fill="#2F2E41"/>
<path id="Vector_33" d="M865.085 418.144L852.048 411.225C850.526 410.415 849.388 409.035 848.883 407.388C848.378 405.74 848.547 403.959 849.353 402.436L907.017 293.775C907.827 292.254 909.207 291.116 910.855 290.611C912.503 290.106 914.283 290.275 915.806 291.08L928.844 297.999C930.365 298.809 931.503 300.189 932.008 301.836C932.514 303.484 932.345 305.264 931.539 306.787L873.874 415.449C873.475 416.204 872.931 416.872 872.273 417.417C871.615 417.961 870.856 418.37 870.039 418.62C869.223 418.871 868.365 418.958 867.515 418.876C866.665 418.794 865.839 418.545 865.085 418.144V418.144Z" fill="#673AB7"/>
<path id="Vector_34" d="M935.688 306.557L910.406 351.649C909.773 353.055 908.623 354.164 907.195 354.745C905.766 355.326 904.169 355.335 902.734 354.77L881.852 346.544C881.027 346.219 880.285 345.715 879.678 345.069C879.071 344.423 878.615 343.65 878.342 342.806C878.07 341.963 877.987 341.069 878.101 340.19C878.215 339.311 878.523 338.467 879.002 337.721L907.048 292.007C907.796 290.604 909.069 289.554 910.589 289.087C912.109 288.621 913.752 288.775 915.158 289.517L933.198 298.437C934.604 299.185 935.656 300.46 936.123 301.982C936.59 303.505 936.433 305.15 935.688 306.557V306.557Z" fill="#CCCCCC"/>
<path id="Vector_35" d="M915.099 174.796C905.923 176.23 894.817 177.698 887.917 169.974C886.551 168.552 885.597 166.785 885.157 164.863C884.717 162.941 884.807 160.935 885.418 159.06C886.748 155.266 890.179 152.375 893.779 150.805C899.161 148.458 905.29 148.602 911.04 148.667C911.429 148.653 911.797 148.49 912.067 148.21C912.338 147.93 912.489 147.556 912.489 147.167C912.489 146.778 912.338 146.404 912.067 146.124C911.797 145.844 911.429 145.68 911.04 145.667C905.171 145.601 899.03 145.545 893.473 147.709C889.1 149.413 885.05 152.571 883.07 156.918C878.73 166.448 886.746 175.754 895.803 178.074C902.412 179.767 909.274 178.723 915.896 177.688C917.798 177.391 916.991 174.5 915.099 174.796V174.796Z" fill="#2F2E41"/>
<path id="Vector_36" d="M789.332 319.874H839.139C842.254 296.888 835.381 275.429 839.139 260.105H789.332C779.954 280.028 779.954 299.951 789.332 319.874Z" fill="#3F3D56"/>
</g>
</g>
<defs>
<clipPath id="clip0">
<rect width="983.566" height="543.498" fill="white"/>
</clipPath>
</defs>
</svg>
