<svg width="1022" height="751" viewBox="0 0 1022 751" fill="none" xmlns="http://www.w3.org/2000/svg">
<g id="LandingPageSvg 1" clip-path="url(#clip0)">
<g id="rest">
<path id="Vector" d="M179.107 0L125.719 87.2613C140.138 96.6267 150.332 111.25 154.132 128.018C157.932 144.787 155.037 162.376 146.064 177.043C137.091 191.709 122.748 202.294 106.088 206.545C89.4282 210.796 71.7671 208.376 56.8641 199.802L0.0986328 292.584L547.733 627.636L726.741 335.053L179.107 0Z" fill="#F2F2F2"/>
<path id="Vector_2" d="M496.759 718.593C580.707 718.593 648.759 714.116 648.759 708.593C648.759 703.071 580.707 698.593 496.759 698.593C412.812 698.593 344.759 703.071 344.759 708.593C344.759 714.116 412.812 718.593 496.759 718.593Z" fill="#F2F2F2"/>
<path id="Vector_3" d="M239.759 750.264C278.971 750.264 310.759 748.173 310.759 745.593C310.759 743.014 278.971 740.922 239.759 740.922C200.547 740.922 168.759 743.014 168.759 745.593C168.759 748.173 200.547 750.264 239.759 750.264Z" fill="#F2F2F2"/>
<path id="Vector_4" d="M798.759 695.593C882.707 695.593 950.759 691.116 950.759 685.593C950.759 680.071 882.707 675.593 798.759 675.593C714.812 675.593 646.759 680.071 646.759 685.593C646.759 691.116 714.812 695.593 798.759 695.593Z" fill="#F2F2F2"/>
<path id="Vector_5" d="M6.75928 669.593H1021.76" stroke="#2F2E41" stroke-width="2" stroke-miterlimit="10"/>
<path id="Vector_6" d="M913.259 176.093H183.259V669.093H913.259V176.093Z" fill="#3F3D56"/>
<path id="Vector_7" d="M183.259 212.152H913.259" stroke="#2F2E41" stroke-width="2" stroke-miterlimit="10"/>
<path id="Vector_8" d="M232.759 203.593C237.73 203.593 241.759 199.564 241.759 194.593C241.759 189.623 237.73 185.593 232.759 185.593C227.789 185.593 223.759 189.623 223.759 194.593C223.759 199.564 227.789 203.593 232.759 203.593Z" fill="#673AB7"/>
<path id="Vector_9" d="M259.759 204.093C264.73 204.093 268.759 200.064 268.759 195.093C268.759 190.123 264.73 186.093 259.759 186.093C254.789 186.093 250.759 190.123 250.759 195.093C250.759 200.064 254.789 204.093 259.759 204.093Z" fill="#673AB7"/>
<path id="Vector_10" opacity="0.3" d="M844.759 245.593H228.759V365.593H844.759V245.593Z" fill="#673AB7"/>
<path id="Vector_11" opacity="0.3" d="M228.759 365.593L844.759 245.593" stroke="#673AB7" stroke-width="2" stroke-miterlimit="10"/>
<path id="Vector_12" opacity="0.3" d="M844.759 365.593L228.759 245.593" stroke="#673AB7" stroke-width="2" stroke-miterlimit="10"/>
<path id="Vector_13" opacity="0.3" d="M375.759 441.593H228.759V634.593H375.759V441.593Z" fill="#673AB7"/>
<path id="Vector_14" opacity="0.3" d="M844.759 441.593H697.759V634.593H844.759V441.593Z" fill="#673AB7"/>
<path id="Vector_15" opacity="0.3" d="M610.259 441.593H463.259V634.593H610.259V441.593Z" fill="#673AB7"/>
<path id="Vector_16" opacity="0.3" d="M228.759 441.593L375.759 634.593" stroke="#673AB7" stroke-width="2" stroke-miterlimit="10"/>
<path id="Vector_17" opacity="0.3" d="M375.759 441.593L228.759 634.593" stroke="#673AB7" stroke-width="2" stroke-miterlimit="10"/>
<path id="Vector_18" opacity="0.3" d="M463.759 441.593L610.759 634.593" stroke="#673AB7" stroke-width="2" stroke-miterlimit="10"/>
<path id="Vector_19" opacity="0.3" d="M610.759 441.593L463.759 634.593" stroke="#673AB7" stroke-width="2" stroke-miterlimit="10"/>
<path id="Vector_20" opacity="0.3" d="M697.759 441.593L844.759 634.593" stroke="#673AB7" stroke-width="2" stroke-miterlimit="10"/>
<path id="Vector_21" opacity="0.3" d="M844.759 441.593L697.759 634.593" stroke="#673AB7" stroke-width="2" stroke-miterlimit="10"/>
<path id="Vector_22" d="M926.759 245.593H310.759V365.593H926.759V245.593Z" fill="#673AB7"/>
<path id="Vector_23" d="M872.759 487.593H725.759V680.593H872.759V487.593Z" fill="#673AB7"/>
<path id="Vector_24" d="M851.259 539.093H747.259V551.093H851.259V539.093Z" fill="#3F3D56"/>
<path id="Vector_25" d="M851.259 565.093H747.259V577.093H851.259V565.093Z" fill="#3F3D56"/>
<path id="Vector_26" d="M851.259 591.093H747.259V603.093H851.259V591.093Z" fill="#3F3D56"/>
<path id="Vector_27" d="M851.259 617.093H747.259V629.093H851.259V617.093Z" fill="#3F3D56"/>
<path id="Vector_28" d="M851.259 643.093H747.259V655.093H851.259V643.093Z" fill="#3F3D56"/>
<path id="Vector_29" d="M411.759 467.593H264.759V660.593H411.759V467.593Z" fill="#673AB7"/>
<path id="Vector_30" d="M390.259 558.093H286.259V570.093H390.259V558.093Z" fill="#3F3D56"/>
<path id="Vector_31" d="M390.259 584.093H286.259V596.093H390.259V584.093Z" fill="#3F3D56"/>
<path id="Vector_32" d="M82.2311 362.672C95.1726 362.672 105.664 352.181 105.664 339.239C105.664 326.298 95.1726 315.806 82.2311 315.806C69.2896 315.806 58.7984 326.298 58.7984 339.239C58.7984 352.181 69.2896 362.672 82.2311 362.672Z" fill="#2F2E41"/>
<path id="Vector_33" d="M69.8936 354.839C69.8936 354.839 70.2464 369.304 68.8352 369.656C67.4241 370.009 88.2386 375.654 88.2386 375.654L90.3553 355.898L69.8936 354.839Z" fill="#A0616A"/>
<path id="Vector_34" d="M234.293 478.315C234.293 478.315 249.816 478.315 250.168 476.551C250.521 474.787 253.696 491.015 253.696 491.015L247.346 493.132C247.346 493.132 235.351 487.84 234.293 487.84C233.235 487.84 234.293 478.315 234.293 478.315Z" fill="#A0616A"/>
<path id="Vector_35" d="M251.227 484.665C251.227 484.665 248.404 475.14 244.877 474.787C244.877 474.787 256.871 467.026 257.224 464.556C257.577 462.087 261.81 455.737 263.574 457.853C265.338 459.97 265.338 493.485 262.163 497.013C258.988 500.541 244.877 492.054 244.877 492.054C244.877 492.054 253.696 488.193 251.227 484.665Z" fill="#2F2E41"/>
<path id="Vector_36" d="M59.663 619.783L56.841 634.953L69.894 637.07V619.783H59.663Z" fill="#A0616A"/>
<path id="Vector_37" d="M59.6628 633.189C59.6628 633.189 57.5461 626.486 56.1349 627.544C54.7238 628.603 52.607 635.306 52.9598 637.07C53.3126 638.834 55.7821 652.592 54.7238 655.062C53.6654 657.532 60.0156 670.232 68.1298 669.174C76.2439 668.115 75.5383 661.059 75.5383 661.059L72.716 650.123L71.6576 632.836C71.6576 632.836 62.4851 631.425 59.6628 633.189Z" fill="#2F2E41"/>
<path id="Vector_38" d="M74.0341 324.273C79.3892 324.273 83.7304 319.931 83.7304 314.576C83.7304 309.221 79.3892 304.88 74.0341 304.88C68.6789 304.88 64.3378 309.221 64.3378 314.576C64.3378 319.931 68.6789 324.273 74.0341 324.273Z" fill="#2F2E41"/>
<path id="Vector_39" d="M61.1056 309.324C61.1057 306.927 61.9935 304.616 63.5975 302.835C65.2015 301.054 67.4082 299.93 69.7919 299.68C69.4563 299.646 69.1192 299.628 68.7819 299.628C66.2103 299.628 63.744 300.65 61.9256 302.468C60.1071 304.286 59.0856 306.753 59.0856 309.324C59.0856 311.896 60.1071 314.362 61.9256 316.181C63.744 317.999 66.2103 319.021 68.7819 319.021C69.1192 319.02 69.4563 319.003 69.7919 318.968C67.4082 318.718 65.2015 317.594 63.5975 315.814C61.9934 314.033 61.1057 311.721 61.1056 309.324Z" fill="#2F2E41"/>
<path id="Vector_40" d="M82.2412 364.717C90.4245 364.717 97.0583 358.083 97.0583 349.9C97.0583 341.717 90.4245 335.083 82.2412 335.083C74.058 335.083 67.4241 341.717 67.4241 349.9C67.4241 358.083 74.058 364.717 82.2412 364.717Z" fill="#A0616A"/>
<path id="Vector_41" d="M52.9598 452.914C52.9598 452.914 53.6654 470.554 56.4877 479.726C59.31 488.899 69.4851 554.223 67.3684 559.162C65.2517 564.101 54.371 618.725 56.8405 621.9C59.31 625.075 70.952 624.017 70.952 624.017L86.7718 557.751C86.7718 557.751 83.6524 484.665 109.759 482.901C135.865 481.137 178.552 480.079 178.552 480.079C178.552 480.079 206.07 488.193 218.418 487.84C230.765 487.488 237.821 491.015 237.821 491.015L239.938 476.551L185.255 464.556C185.255 464.556 135.16 447.27 107.642 451.856C80.1245 456.442 52.9598 452.914 52.9598 452.914Z" fill="#2F2E41"/>
<path id="Vector_42" d="M72.716 365.07C72.716 365.07 68.4825 362.601 67.4242 365.07C66.3658 367.54 58.9573 369.656 56.135 367.54C53.3127 365.423 46.2569 368.245 46.2569 368.245L38.4955 391.176C38.4955 391.176 42.3762 410.933 45.9041 421.869C49.432 432.805 50.8431 455.384 49.432 457.501C48.0208 459.617 77.655 468.084 92.1193 462.792C106.584 457.501 109.759 451.503 109.759 451.503C109.759 451.503 93.8833 428.925 99.1751 418.341C104.467 407.758 100.233 395.763 100.233 395.763L102.35 383.768L90.3554 377.065C90.3554 377.065 89.6498 370.715 86.8275 370.715C84.0052 370.715 72.716 365.07 72.716 365.07Z" fill="#D0CDE1"/>
<path id="Vector_43" d="M97.0583 384.121H102.35C103.818 385.494 104.912 387.219 105.529 389.132C106.147 391.046 106.267 393.085 105.878 395.057C104.467 401.76 98.1027 423.982 98.1027 423.982L92.8249 410.227L97.0583 384.121Z" fill="#D0CDE1"/>
<path id="Vector_44" d="M112.254 440.777C112.254 440.777 122.812 452.209 115.051 458.206C107.289 464.204 105.377 444.447 105.377 444.447L112.254 440.777Z" fill="#A0616A"/>
<path id="Vector_45" d="M97.0584 416.93L99.5279 426.808L103.761 434.569C103.761 434.569 118.226 444.095 118.226 447.623C118.226 447.623 111.875 439.508 103.761 447.623L96.5292 430.16L97.0584 416.93Z" fill="#D0CDE1"/>
<path id="Vector_46" d="M84.957 343.967C93.8822 343.967 101.117 339.626 101.117 334.271C101.117 328.916 93.8822 324.574 84.957 324.574C76.0318 324.574 68.7965 328.916 68.7965 334.271C68.7965 339.626 76.0318 343.967 84.957 343.967Z" fill="#2F2E41"/>
<path id="Vector_47" d="M52.9598 335.083C52.9598 335.083 64.2491 328.733 68.8353 333.319C73.4216 337.905 55.0766 344.961 55.0766 344.961L52.9598 335.083Z" fill="#A0616A"/>
<path id="Vector_48" d="M48.7264 370.009L46.2569 368.245C46.2569 368.245 43.4345 364.012 40.965 365.423C38.4955 366.834 24.0312 360.131 24.0312 360.131C24.0312 360.131 29.323 362.601 29.323 358.367C29.323 354.134 30.0286 354.839 33.5565 354.839C37.0844 354.839 37.0844 356.603 38.4955 354.134C39.9066 351.664 39.201 350.253 41.6706 351.664C44.1401 353.075 46.9624 352.017 47.668 350.959C48.3735 349.9 61.074 348.136 61.074 348.136C61.074 348.136 56.135 333.672 55.0766 332.614C54.0182 331.555 26.8536 343.55 26.8536 343.55C26.8536 343.55 -7.36689 353.075 1.45282 364.012C10.2725 374.948 42.0234 391.529 42.0234 391.529L48.7264 370.009Z" fill="#D0CDE1"/>
<path id="Vector_49" d="M577.759 515.593H430.759V708.593H577.759V515.593Z" fill="#673AB7"/>
<path id="Vector_50" d="M562.259 648.093H446.259V656.093H562.259V648.093Z" fill="#3F3D56"/>
<path id="Vector_51" d="M562.259 670.093H446.259V678.093H562.259V670.093Z" fill="#3F3D56"/>
</g>
<g id="circle-big">
<path id="Vector_52" d="M97.7593 185.593C121.508 185.593 140.759 166.342 140.759 142.593C140.759 118.845 121.508 99.5934 97.7593 99.5934C74.011 99.5934 54.7593 118.845 54.7593 142.593C54.7593 166.342 74.011 185.593 97.7593 185.593Z" fill="#F2F2F2"/>
</g>
<g id="circle-small">
<path id="Vector_53" d="M205.759 203.093C210.73 203.093 214.759 199.064 214.759 194.093C214.759 189.123 210.73 185.093 205.759 185.093C200.789 185.093 196.759 189.123 196.759 194.093C196.759 199.064 200.789 203.093 205.759 203.093Z" fill="#E91E63"/>
</g>
<g id="leaf-1">
<path id="Vector_54" d="M648.593 315.962C648.593 338.431 635.237 346.276 618.759 346.276C618.378 346.276 617.996 346.272 617.616 346.263C616.853 346.247 616.096 346.211 615.349 346.16C600.479 345.107 588.925 336.859 588.925 315.962C588.925 294.337 616.56 267.05 618.636 265.031L618.639 265.027C618.719 264.949 618.759 264.911 618.759 264.911C618.759 264.911 648.593 293.494 648.593 315.962Z" fill="#E91E63"/>
<path id="Vector_55" d="M617.672 342.839L628.584 327.592L617.645 344.513L617.616 346.263C616.853 346.247 616.096 346.211 615.349 346.16L616.525 323.68L616.516 323.506L616.536 323.473L616.647 321.35L605.681 304.387L616.682 319.758L616.707 320.209L617.596 303.224L608.208 285.696L617.71 300.243L618.636 265.031L618.639 264.911V265.027L618.485 292.794L627.831 281.786L618.447 295.186L618.199 310.393L626.926 295.799L618.163 312.631L618.025 321.085L630.694 300.772L617.978 324.035L617.672 342.839Z" fill="#673AB7"/>
</g>
<g id="square">
<path id="Vector_56" d="M537.259 546.093H471.259V612.093H537.259V546.093Z" fill="#3F3D56"/>
</g>
<g id="rectangles">
<path id="Vector_57" d="M851.259 513.093H747.259V525.093H851.259V513.093Z" fill="#E91E63"/>
<path id="Vector_58" d="M390.259 532.093H286.259V544.093H390.259V532.093Z" fill="#E91E63"/>
<path id="Vector_59" d="M562.259 626.093H446.259V634.093H562.259V626.093Z" fill="#E91E63"/>
</g>
<g id="leaf-2">
<path id="Vector_60" d="M262.633 725.027C262.633 739.608 253.965 744.699 243.272 744.699C243.024 744.699 242.777 744.696 242.53 744.69C242.035 744.68 241.544 744.656 241.059 744.623C231.409 743.94 223.911 738.587 223.911 725.027C223.911 710.993 241.845 693.285 243.192 691.975L243.194 691.972C243.246 691.922 243.272 691.897 243.272 691.897C243.272 691.897 262.633 710.446 262.633 725.027Z" fill="#E91E63"/>
<path id="Vector_61" d="M242.567 742.468L249.648 732.574L242.549 743.554L242.53 744.69C242.035 744.68 241.544 744.656 241.059 744.623L241.822 730.035L241.816 729.922L241.829 729.901L241.901 728.523L234.785 717.515L241.924 727.49L241.94 727.782L242.517 716.76L236.425 705.385L242.591 714.826L243.192 691.975L243.194 691.897V691.972L243.094 709.992L249.159 702.848L243.069 711.544L242.909 721.412L248.572 711.941L242.885 722.865L242.795 728.351L251.017 715.169L242.765 730.265L242.567 742.468Z" fill="#3F3D56"/>
</g>
</g>
<defs>
<clipPath id="clip0">
<rect width="1021.76" height="750.264" fill="white"/>
</clipPath>
</defs>
</svg>
