<svg width="799" height="668" viewBox="0 0 799 668" fill="none" xmlns="http://www.w3.org/2000/svg">
<g clip-path="url(#clip0)">
<path d="M649 630.158H164L164.219 578.736C164.772 448.621 268.627 341.407 398.725 339.194C400.13 339.17 401.538 339.158 402.948 339.158H402.949C432.223 339.136 461.265 344.353 488.701 354.564C580.755 388.846 642.542 475.947 646.652 574.092L649 630.158Z" fill="#673AB7"/>
<path d="M799 630.158H0V632.158H799V630.158Z" fill="#2F2E41"/>
<path d="M398.287 400.165L419.657 415.708L441.028 598.33H491.54L474.055 390.451L404.115 363.252L398.287 400.165Z" fill="#2F2E41"/>
<path d="M308.918 341.882C308.918 341.882 303.09 407.936 326.404 409.879C349.717 411.822 439.085 390.451 439.085 390.451L481.826 541.989L545.938 508.961C545.938 508.961 507.083 337.996 483.769 328.282C460.456 318.568 382.744 299.14 382.744 299.14L326.404 308.854L308.918 341.882Z" fill="#2F2E41"/>
<path d="M448.799 594.444C448.799 594.444 437.142 639.128 444.913 643.014C449.588 645.349 454.128 647.944 458.513 650.785V643.014C458.513 643.014 468.227 652.728 468.227 660.499C468.227 668.27 520.682 670.213 520.682 660.499C520.682 650.785 518.739 639.128 509.025 633.3C499.312 627.471 487.655 594.444 487.655 594.444H448.799Z" fill="#2F2E41"/>
<path d="M505.14 514.79L509.025 551.703L522.625 575.016L555.652 538.103L530.396 497.305L505.14 514.79Z" fill="#2F2E41"/>
<path d="M536.224 551.703C536.224 551.703 543.378 527.242 550.487 529.759C557.595 532.275 584.794 557.531 584.794 557.531L604.222 569.188C604.222 569.188 643.078 573.073 631.421 584.73C619.764 596.387 577.023 611.929 557.595 604.158C538.167 596.387 534.282 594.444 534.282 594.444L528.453 598.33L505.14 592.501L509.025 551.703C509.025 551.703 514.854 569.188 536.224 551.703Z" fill="#2F2E41"/>
<path d="M374.973 99.0334C399.651 99.0334 419.657 79.0276 419.657 54.3493C419.657 29.6709 399.651 9.66519 374.973 9.66519C350.295 9.66519 330.289 29.6709 330.289 54.3493C330.289 79.0276 350.295 99.0334 374.973 99.0334Z" fill="#9F616A"/>
<path d="M346.803 80.5769C346.803 80.5769 350.688 121.375 339.032 121.375C327.375 121.375 340.974 171.888 372.059 171.888C403.144 171.888 414.8 111.661 414.8 111.661C414.8 111.661 393.43 103.89 397.315 78.6341C401.201 53.3779 346.803 80.5769 346.803 80.5769Z" fill="#9F616A"/>
<path d="M343.707 118.263L327.375 125.261L283.05 144.014C281.263 144.77 279.768 146.083 278.788 147.758C277.809 149.433 277.397 151.38 277.614 153.308L294.348 302.055C294.348 302.055 276.862 338.968 304.061 340.91L307.947 354.51L339.032 317.597L455.599 313.711L457.542 125.261L404.206 104.185C404.206 104.185 396.952 144.293 343.707 118.263Z" fill="#3F3D56"/>
<path d="M289.491 149.546L282.311 147.495C281.506 147.265 280.661 147.208 279.833 147.329C279.004 147.449 278.211 147.744 277.505 148.194C276.799 148.644 276.196 149.238 275.737 149.938C275.277 150.638 274.972 151.427 274.84 152.254L255.788 271.761C254.302 280.611 255.725 289.705 259.843 297.678C265.729 308.824 277.955 318.933 303.09 306.912L320.575 180.63L289.491 149.546Z" fill="#3F3D56"/>
<path d="M435.2 122.347L458.513 126.232L522.625 215.601L528.453 231.143L565.366 219.486C565.366 219.486 563.424 236.971 582.851 235.028C582.851 235.028 559.538 299.14 510.968 279.713C462.399 260.285 446.856 202.001 446.856 202.001L435.2 122.347Z" fill="#3F3D56"/>
<path d="M462.399 161.203L374.973 126.232L371.088 137.889L411.886 172.859L462.399 161.203Z" fill="#CCCCCC"/>
<path d="M348.07 57.1979C349.72 56.7572 349.962 54.5661 350.018 52.8589C350.314 43.7164 355.819 34.3352 364.571 31.6736C367.929 30.7528 371.445 30.5593 374.884 31.1061C379.793 31.76 384.532 33.3412 388.85 35.7657C391.13 37.0471 393.366 38.5905 395.951 38.9819C397.658 39.2404 405.051 41.39 406.752 41.6925C410.49 42.3576 413.964 45.7021 417.551 44.4575C420.983 43.2668 421.742 38.8235 421.825 35.192C422.014 26.9188 415.734 15.4683 410.202 9.31363C406.004 4.64309 399.683 2.48711 393.504 1.36604C386.286 0.20625 378.971 -0.238735 371.666 0.0375489C361.777 0.213909 351.615 0.977156 342.698 5.25583C333.781 9.5345 326.291 18.0501 325.864 27.931C325.775 29.9893 325.987 32.0561 325.814 34.1091C325.392 39.1172 322.732 43.6407 321.485 48.5092C320.593 52.0815 320.46 55.801 321.094 59.4279C321.727 63.0548 323.114 66.5086 325.165 69.5667C328.474 74.4368 341.708 78.8578 341.516 84.7427C343.908 82.2647 338.267 79.7703 340.659 77.2923C341.731 76.474 342.49 75.3128 342.809 74.0026C343.128 72.6925 342.987 71.3125 342.412 70.0932L339.872 60.1865C339.407 58.3725 338.95 56.4089 339.652 54.6732C342.375 47.9451 345.318 57.9326 348.07 57.1979Z" fill="#2F2E41"/>
<path d="M371.088 137.889L334.175 281.655L477.941 332.168L561.481 262.227L613.936 104.862L528.453 167.031L371.088 137.889Z" fill="#F2F2F2"/>
<path d="M378.135 153.464L377.64 155.342L517.52 192.255L518.016 190.377L378.135 153.464Z" fill="#E6E6E6"/>
<path d="M374.25 163.178L373.754 165.056L513.635 201.969L514.13 200.091L374.25 163.178Z" fill="#E6E6E6"/>
<path d="M372.307 172.892L371.811 174.77L511.692 211.683L512.187 209.805L372.307 172.892Z" fill="#E6E6E6"/>
<path d="M370.364 182.606L369.868 184.484L509.749 221.397L510.245 219.519L370.364 182.606Z" fill="#E6E6E6"/>
<path d="M368.421 192.319L367.926 194.198L507.806 231.111L508.302 229.232L368.421 192.319Z" fill="#E6E6E6"/>
<path d="M366.478 202.033L365.983 203.912L505.863 240.825L506.359 238.946L366.478 202.033Z" fill="#E6E6E6"/>
<path d="M364.536 211.747L364.04 213.626L503.921 250.538L504.416 248.66L364.536 211.747Z" fill="#E6E6E6"/>
<path d="M362.593 221.461L362.097 223.339L501.978 260.252L502.474 258.374L362.593 221.461Z" fill="#E6E6E6"/>
<path d="M360.65 231.175L360.154 233.053L500.035 269.966L500.531 268.088L360.65 231.175Z" fill="#E6E6E6"/>
<path d="M311.85 243.642C311.85 243.642 355.545 217.543 374.973 235.028C394.401 252.514 318.632 277.77 318.632 277.77L311.85 243.642Z" fill="#9F616A"/>
<path d="M264.234 256.399L320.575 235.028C320.575 235.028 310.861 271.941 330.289 273.884L303.09 306.912C303.09 306.912 248.692 306.912 264.234 256.399Z" fill="#3F3D56"/>
<path d="M412.494 255.602L487.255 280.799L469.562 319.365L394.801 294.169L412.494 255.602Z" fill="#E6E6E6"/>
<path d="M544.967 173.831L601.308 131.089L585.766 183.545L527.482 226.286L544.967 173.831Z" fill="#CCCCCC"/>
<path d="M573.522 202.199L517.18 244.939L518.355 246.487L574.697 203.747L573.522 202.199Z" fill="#E6E6E6"/>
<path d="M569.637 223.57L513.295 266.31L514.469 267.858L570.811 225.118L569.637 223.57Z" fill="#E6E6E6"/>
<path d="M577.023 236.971C577.023 236.971 625.593 207.829 594.508 196.173C563.423 184.516 563.423 229.2 563.423 229.2C563.423 229.2 561.481 238.914 577.023 236.971Z" fill="#9F616A"/>
<path opacity="0.1" d="M292.405 171.888L290.462 247.657L320.575 239.063L296.29 239.885L292.405 171.888Z" fill="black"/>
<path d="M80.4086 595.892C86.4818 618.342 107.284 632.246 107.284 632.246C107.284 632.246 118.239 609.751 112.166 587.301C106.093 564.851 85.2909 550.947 85.2909 550.947C85.2909 550.947 74.3355 573.442 80.4086 595.892Z" fill="#8985A8"/>
<path d="M89.3327 591.067C105.998 607.29 108.033 632.228 108.033 632.228C108.033 632.228 83.0495 630.864 66.3847 614.641C49.7198 598.419 47.6843 573.481 47.6843 573.481C47.6843 573.481 72.6679 574.845 89.3327 591.067Z" fill="#E91E63"/>
<path d="M656 379.158H626V409.158H656V379.158Z" fill="#E91E63"/>
<path d="M536 39.1577H506V69.1577H536V39.1577Z" fill="#E91E63"/>
<path d="M159 343.158C167.284 343.158 174 336.442 174 328.158C174 319.873 167.284 313.158 159 313.158C150.716 313.158 144 319.873 144 328.158C144 336.442 150.716 343.158 159 343.158Z" fill="#E91E63"/>
</g>
<defs>
<clipPath id="clip0">
<rect width="799" height="667.076" fill="white"/>
</clipPath>
</defs>
</svg>
