<svg width="1156" height="797" viewBox="0 0 1156 797" fill="none" xmlns="http://www.w3.org/2000/svg">
<g clip-path="url(#clip0)">
<path opacity="0.1" d="M356.76 40.24C395.96 4.92999 457.5 -2.26001 513.51 0.549989C689.44 9.37999 848.25 95.14 985.62 192.15C1035.35 227.27 1084.31 265.15 1116.62 313.48C1182.34 411.93 1162.84 548.32 1071.47 629.42C1040.38 657.02 1002.69 678.17 964 696.93C895.21 730.27 821 757.03 742.91 764.65C687.23 770.08 630.91 765.65 575.51 758.09C420.86 736.91 269.06 690.09 141.82 609.95C85.99 574.81 33.39 531.12 10.39 474.24C-12.61 417.36 2.11 345.35 59.09 311.7C82.66 297.78 110.83 291.5 138.42 285.59C179.03 276.91 220.28 268.34 256.93 250.68C294.78 232.44 339.59 197.16 332.1 156.78C324.06 113.49 317.61 75.44 356.76 40.24Z" fill="#673AB7"/>
<path d="M256.7 447.81C256.7 447.81 267.07 440.38 277.8 444.97C277.8 444.97 274.8 451.35 261.43 451.27L256.7 447.81Z" fill="#E91E63"/>
<path d="M255.41 448.24C255.41 448.24 252.64 460.69 261.08 468.77C261.08 468.77 265.76 463.5 260.44 451.24L255.41 448.24Z" fill="#E91E63"/>
<path d="M241.7 436.91C241.7 436.91 242.08 426.4 265.88 428.97C265.88 428.97 266.25 435.73 258.07 439.25C249.89 442.77 245.97 440.24 241.7 436.91Z" fill="#E91E63"/>
<path d="M240.23 436.89C240.23 436.89 230.34 440.49 240.12 462.35C240.12 462.35 246.66 460.62 247.49 451.75C248.32 442.88 244.7 439.95 240.23 436.89Z" fill="#E91E63"/>
<path d="M226.26 422.54C226.26 422.54 224.26 405.34 248.5 406.18C248.5 406.18 250.81 421.73 230.69 426.52L226.26 422.54Z" fill="#E91E63"/>
<path d="M209.53 403.68C209.53 403.68 212.1 384.01 236.53 388.9C236.53 388.9 237.27 405.8 213.69 408.19L209.53 403.68Z" fill="#E91E63"/>
<path d="M197.08 383.99C197.08 383.99 201.9 364.7 226.08 369.52C226.08 369.52 221.08 386.87 198.81 387.45L197.08 383.99Z" fill="#E91E63"/>
<path d="M185.23 364.76C185.23 364.76 189.9 344.76 213.23 349.84C213.23 349.84 206.23 368.91 186.86 368.07L185.23 364.76Z" fill="#E91E63"/>
<path d="M177.36 346.36C177.36 346.36 180.61 322.03 202.36 326.55C202.36 326.55 196.94 348.78 179.06 349.81L177.36 346.36Z" fill="#E91E63"/>
<path d="M169.79 324.05C169.79 324.05 173.86 299.5 195.94 305.75C195.94 305.75 188.26 329.1 171.44 327.36L169.79 324.05Z" fill="#E91E63"/>
<path d="M164.83 303.24C164.83 303.24 171.83 278.58 188.75 278.59C188.75 278.59 181.6 304.59 166.43 308.07L164.83 303.24Z" fill="#E91E63"/>
<path d="M161.41 282.82C161.41 282.82 168.94 253.16 182.76 254.9C182.76 254.9 177.63 277.54 162.07 287.37L161.41 282.82Z" fill="#E91E63"/>
<path d="M158.98 258.4C158.98 258.4 166.15 233.66 179.67 232.16C179.67 232.16 175.07 256.41 159.52 264.74L158.98 258.4Z" fill="#E91E63"/>
<path d="M156.46 235.68C156.46 235.68 165.64 210.83 174.58 209.93C174.58 209.93 171.11 234.18 157.51 239.66L156.46 235.68Z" fill="#E91E63"/>
<path d="M154.53 214.5C154.53 214.5 159.73 187.69 168.59 185.15C168.59 185.15 168.2 206.92 155.5 216.45L154.53 214.5Z" fill="#E91E63"/>
<path d="M150.1 186.86C150.1 186.86 155.83 165.44 162.95 161.93C162.95 161.93 162.47 186.93 151.95 191.93L150.1 186.86Z" fill="#E91E63"/>
<path d="M146.6 168.72L143.85 131.44C143.85 131.44 158.45 159.1 147.85 175.27L146.6 168.72Z" fill="#E91E63"/>
<path d="M134.7 132.02C134.7 132.02 123.91 105.13 121.51 103.7C121.51 103.7 141.31 120.7 140.31 143.48L134.7 132.02Z" fill="#E91E63"/>
<path d="M225.6 422.44C225.6 422.44 208.35 420.85 209.8 445.07C209.8 445.07 225.4 447 229.69 426.76L225.6 422.44Z" fill="#E91E63"/>
<path d="M208.7 403.06C208.7 403.06 188.88 403.75 191.44 428.5C191.44 428.5 208.19 430.84 212.8 407.59L208.7 403.06Z" fill="#E91E63"/>
<path d="M196.95 385.61C196.95 385.61 178.63 377.86 167.95 400.08C167.95 400.08 184.84 406.47 198.67 389.08L196.95 385.61Z" fill="#E91E63"/>
<path d="M184.83 364.96C184.83 364.96 166.07 356.68 156.06 378.38C156.06 378.38 175.51 384.25 186.48 368.26L184.83 364.96Z" fill="#E91E63"/>
<path d="M177.61 346.87C177.61 346.87 159.23 330.61 145.74 348.29C145.74 348.29 164.39 361.53 178.57 350.61L177.61 346.87Z" fill="#E91E63"/>
<path d="M170.77 323.43C170.77 323.43 152.27 306.79 138.92 325.43C138.92 325.43 159.49 338.88 171.55 327.02L170.77 323.43Z" fill="#E91E63"/>
<path d="M166.63 302.45C166.63 302.45 152.06 281.35 136.06 286.79C136.06 286.79 151.2 309.15 166.67 307.54L166.63 302.45Z" fill="#E91E63"/>
<path d="M161.82 282.67C161.82 282.67 146.91 255.95 134.01 261.18C134.01 261.18 144.79 281.74 162.34 287.23L161.82 282.67Z" fill="#E91E63"/>
<path d="M159.87 256.97C159.87 256.97 144.81 236.07 131.58 239.2C131.58 239.2 144.05 260.5 161.49 263.13L159.87 256.97Z" fill="#E91E63"/>
<path d="M157.95 235.14C157.95 235.14 146 211.5 137.02 211.63C137.02 211.63 143.23 235.33 157.36 239.21L157.95 235.14Z" fill="#E91E63"/>
<path d="M154.95 213.96C154.95 213.96 141.75 190.06 132.53 190.36C132.53 190.36 139.61 210.96 154.62 216.12L154.95 213.96Z" fill="#E91E63"/>
<path d="M152.12 188.24C152.12 188.24 142.17 168.42 134.49 166.43C134.49 166.43 140.02 190.83 151.31 193.63L152.12 188.24Z" fill="#E91E63"/>
<path d="M145.48 168.06L123.79 137.62C123.79 137.62 130.22 168.24 148.7 173.9L145.48 168.06Z" fill="#E91E63"/>
<path d="M130.11 134.71C130.11 134.71 105.7 119.18 104.7 116.55C104.7 116.55 117.7 139.13 140.36 142.33L130.11 134.71Z" fill="#E91E63"/>
<path d="M128.4 127.37C128.4 127.37 100.04 102.12 93.06 102.42C93.06 102.42 115.66 102.58 129.06 125.95L128.4 127.37Z" fill="#E91E63"/>
<path d="M152 192.24L151 192.41C144.32 152.36 135.91 128.87 127.33 126.25L127.62 125.25C136.7 128.01 145.16 151.16 152 192.24Z" fill="#444053"/>
<path d="M163.25 288.12L161.75 288.3C161.29 284.56 160.89 280.72 160.58 276.9C157.87 243.65 154.47 213.15 150.67 190.33L151.5 189.22C155.31 212.08 159.37 243.48 162.09 276.78C162.4 280.58 162.79 284.39 163.25 288.12Z" fill="#444053"/>
<path d="M285.53 465.89C285.26 465.78 258.3 454.96 229.7 427.78C212.951 411.871 198.83 393.409 187.86 373.08C174.15 347.67 165.18 316.13 161.39 285.31L162.99 285.99C171.49 355.17 204.91 401.41 230.99 426.26C259.31 453.2 285.99 463.91 286.24 464.01L285.53 465.89Z" fill="#444053"/>
<g opacity="0.7">
<path opacity="0.7" d="M298.54 384.45C298.54 384.45 310.65 380.45 319.54 388.02C319.54 388.02 314.77 393.22 302.03 389.16L298.54 384.45Z" fill="#E91E63"/>
<path opacity="0.7" d="M297.18 384.47C297.18 384.47 290.84 395.54 296.49 405.75C296.49 405.75 302.49 402.12 301.1 388.83L297.18 384.47Z" fill="#E91E63"/>
<path opacity="0.7" d="M287.45 369.58C287.45 369.58 290.95 359.66 312.9 369.19C312.9 369.19 311.25 375.76 302.38 376.68C293.51 377.6 290.55 374.01 287.45 369.58Z" fill="#E91E63"/>
<path opacity="0.7" d="M286.06 369.13C286.06 369.13 275.56 369.63 278.38 393.4C278.38 393.4 285.15 393.7 288.58 385.47C292.01 377.24 289.42 373.37 286.06 369.13Z" fill="#E91E63"/>
<path opacity="0.7" d="M277 351.24C277 351.24 280.19 334.24 303.09 342.24C303.09 342.24 300.68 357.77 280.04 356.36L277 351.24Z" fill="#E91E63"/>
<path opacity="0.7" d="M266.64 328.24C266.64 328.24 274.94 310.24 296.78 322.16C296.78 322.16 292.46 338.51 269.23 333.78L266.64 328.24Z" fill="#E91E63"/>
<path opacity="0.7" d="M260.6 305.79C260.6 305.79 270.95 288.79 292.6 300.6C292.6 300.6 282.6 315.66 261.23 309.6L260.6 305.79Z" fill="#E91E63"/>
<path opacity="0.7" d="M255.01 283.9C255.01 283.9 265.41 266.22 286.2 277.99C286.2 277.99 273.85 294.11 255.61 287.55L255.01 283.9Z" fill="#E91E63"/>
<path opacity="0.7" d="M252.97 263.99C252.97 263.99 263.31 241.73 282.75 252.53C282.75 252.53 270.96 272.13 253.59 267.8L252.97 263.99Z" fill="#E91E63"/>
<path opacity="0.7" d="M252.39 240.44C252.39 240.44 263.58 218.21 282.79 230.75C282.79 230.75 268.52 250.75 252.98 244.09L252.39 240.44Z" fill="#E91E63"/>
<path opacity="0.7" d="M253.86 219.07C253.86 219.07 267.86 197.61 284.02 202.65C284.02 202.65 269.45 225.38 253.94 224.16L253.86 219.07Z" fill="#E91E63"/>
<path opacity="0.7" d="M256.7 198.58C256.7 198.58 272.7 172.51 285.39 178.28C285.39 178.28 273.75 198.37 255.98 203.12L256.7 198.58Z" fill="#E91E63"/>
<path opacity="0.7" d="M261.59 174.55C261.59 174.55 275.81 153.06 289.15 155.65C289.15 155.65 277.55 177.44 260.23 180.76L261.59 174.55Z" fill="#E91E63"/>
<path opacity="0.7" d="M265.96 152.1C265.96 152.1 282.11 131.1 290.91 132.92C290.91 132.92 280.38 155.04 265.77 156.21L265.96 152.1Z" fill="#E91E63"/>
<path opacity="0.7" d="M270.41 131.31C270.41 131.31 283.35 107.31 292.57 107.47C292.57 107.47 285.71 128.14 270.76 133.47L270.41 131.31Z" fill="#E91E63"/>
<path opacity="0.7" d="M274.4 103.6C274.4 103.6 286.25 84.86 294.09 83.6C294.09 83.6 286.19 107.34 274.67 109.01L274.4 103.6Z" fill="#E91E63"/>
<path opacity="0.7" d="M276.46 85.24L284.93 48.82C284.93 48.82 290.64 79.57 275.7 91.82L276.46 85.24Z" fill="#E91E63"/>
<path opacity="0.7" d="M276.04 46.67C276.04 46.67 273.73 17.79 271.87 15.67C271.87 15.67 285.73 37.75 277.99 59.25L276.04 46.67Z" fill="#E91E63"/>
<path opacity="0.7" d="M276.39 350.97C276.39 350.97 260.39 344.33 254.58 367.89C254.58 367.89 268.89 374.37 279.01 356.32L276.39 350.97Z" fill="#E91E63"/>
<path opacity="0.7" d="M266.02 327.44C266.02 327.44 246.89 322.21 241.97 346.6C241.97 346.6 257.27 353.82 268.59 332.99L266.02 327.44Z" fill="#E91E63"/>
<path opacity="0.7" d="M260 307.29C260 307.29 244.82 294.44 228 312.48C228 312.48 242.22 323.61 260.61 311.1L260 307.29Z" fill="#E91E63"/>
<path opacity="0.7" d="M254.58 283.97C254.58 283.97 239.12 270.49 223.12 288.22C223.12 288.22 239.94 299.62 255.17 287.62L254.58 283.97Z" fill="#E91E63"/>
<path opacity="0.7" d="M253.07 264.56C253.07 264.56 240.35 243.56 222.21 256.42C222.21 256.42 236.08 274.62 252.87 268.42L253.07 264.56Z" fill="#E91E63"/>
<path opacity="0.7" d="M253.51 240.14C253.51 240.14 240.79 218.75 222.51 232.59C222.51 232.59 238.15 251.59 253.18 243.82L253.51 240.14Z" fill="#E91E63"/>
<path opacity="0.7" d="M255.79 218.87C255.79 218.87 248.16 194.4 231.27 194.87C231.27 194.87 239.07 220.73 254.32 223.79L255.79 218.87Z" fill="#E91E63"/>
<path opacity="0.7" d="M257.08 198.56C257.08 198.56 250.8 168.61 236.93 169.77C236.93 169.77 241.11 192.61 256.23 203.08L257.08 198.56Z" fill="#E91E63"/>
<path opacity="0.7" d="M262.88 173.45C262.88 173.45 254.72 149.01 241.15 148.06C241.15 148.06 246.72 172.11 262.59 179.81L262.88 173.45Z" fill="#E91E63"/>
<path opacity="0.7" d="M267.54 152.03C267.54 152.03 263.16 125.91 254.54 123.36C254.54 123.36 253.43 147.83 265.76 155.75L267.54 152.03Z" fill="#E91E63"/>
<path opacity="0.7" d="M270.97 130.92C270.97 130.92 265.48 104.17 256.59 101.72C256.59 101.72 257.22 123.49 270.02 132.88L270.97 130.92Z" fill="#E91E63"/>
<path opacity="0.7" d="M275.91 105.56C275.91 105.56 272.31 83.68 265.57 79.49C265.57 79.49 263.57 104.43 273.57 110.49L275.91 105.56Z" fill="#E91E63"/>
<path opacity="0.7" d="M275.59 84.24L263.93 48.72C263.93 48.72 260.93 79.86 276.93 90.77L275.59 84.24Z" fill="#E91E63"/>
<path opacity="0.7" d="M270.84 47.87C270.84 47.87 252.11 25.76 251.97 22.97C251.97 22.97 257.7 48.4 278.34 58.19L270.84 47.87Z" fill="#E91E63"/>
<path opacity="0.7" d="M271.39 40.36C271.39 40.36 251.82 7.81001 245.07 6.01001C245.07 6.01001 266.59 12.9 272.39 39.17L271.39 40.36Z" fill="#E91E63"/>
<path opacity="0.7" d="M274.63 109.24L273.63 109.1C279.16 68.89 278.13 43.95 270.71 38.9L271.28 38.07C279.15 43.44 280.3 68.05 274.63 109.24Z" fill="#444053"/>
<path opacity="0.7" d="M256.83 204.24L255.34 203.97C256.02 200.26 256.78 196.48 257.62 192.73C264.93 160.18 270.76 130.06 273.91 107.14L275.04 106.32C271.88 129.32 266.41 160.47 259.1 193.07C258.26 196.74 257.5 200.5 256.83 204.24Z" fill="#444053"/>
<path opacity="0.7" d="M320.7 410.29C320.48 410.11 297.96 391.76 278.7 357.29C267.444 337.12 259.458 315.292 255.04 292.62C249.51 264.28 250.32 231.5 255.88 200.95L257.2 202.07C244.75 270.65 262.9 324.75 280.44 356.24C299.44 390.38 321.72 408.54 321.95 408.72L320.7 410.29Z" fill="#444053"/>
</g>
<path d="M1014.35 754.11C1014.35 754.11 972.07 751.56 977.06 781.19C977.06 781.19 976.06 786.42 980.81 788.8C980.81 788.8 980.89 786.6 985.15 787.35C986.666 787.605 988.207 787.679 989.74 787.57C991.815 787.425 993.787 786.611 995.36 785.25C995.36 785.25 1007.24 780.34 1011.86 760.92C1011.86 760.92 1015.28 756.68 1015.15 755.59L1008.01 758.59C1008.01 758.59 1010.45 763.74 1008.53 768.01C1008.53 768.01 1008.3 758.78 1006.93 759.01C1006.65 759.06 1003.22 760.8 1003.22 760.8C1003.22 760.8 1007.42 769.8 1004.22 776.28C1004.22 776.28 1005.42 765.23 1001.88 761.44L996.88 764.38C996.88 764.38 1001.78 773.64 998.46 781.19C998.46 781.19 999.31 769.6 995.82 765.09L991.27 768.64C991.27 768.64 995.88 777.77 993.07 784.03C993.07 784.03 992.7 770.54 990.29 769.52C990.29 769.52 986.29 773.03 985.7 774.52C985.7 774.52 988.85 781.14 986.9 784.64C986.9 784.64 985.7 775.64 984.71 775.64C984.71 775.64 980.71 781.59 980.33 785.64C980.33 785.64 980.5 779.57 983.75 775.04C981.463 775.47 979.352 776.562 977.68 778.18C977.68 778.18 978.3 773.97 984.68 773.6C984.68 773.6 987.96 769.09 988.84 768.81C988.84 768.81 982.43 768.28 978.55 770C978.55 770 981.97 766 990.01 767.83L994.5 764.16C994.5 764.16 986.07 763.01 982.5 764.28C982.5 764.28 986.61 760.77 995.71 763.33L1000.6 760.41C1000.6 760.41 993.42 758.86 989.14 759.41C989.14 759.41 993.66 756.97 1002.04 759.61L1005.54 758.04C1005.54 758.04 1000.27 757.04 998.73 756.84C997.19 756.64 997.11 756.25 997.11 756.25C1000.44 755.694 1003.86 756.075 1006.99 757.35C1006.99 757.35 1014.48 754.58 1014.35 754.11Z" fill="#E91E63"/>
<path opacity="0.1" d="M985.23 796.44C1001.75 796.44 1015.15 794.175 1015.15 791.38C1015.15 788.585 1001.75 786.32 985.23 786.32C968.706 786.32 955.31 788.585 955.31 791.38C955.31 794.175 968.706 796.44 985.23 796.44Z" fill="#673AB7"/>
<path d="M1095.45 676.04C1095.45 676.04 1071.62 674.61 1074.45 691.31C1074.3 692.156 1074.43 693.027 1074.81 693.797C1075.19 694.568 1075.8 695.199 1076.56 695.6C1076.56 695.6 1076.61 694.36 1079.01 694.78C1079.86 694.929 1080.73 694.973 1081.6 694.91C1082.77 694.831 1083.88 694.371 1084.76 693.6C1084.76 693.6 1091.46 690.83 1094.07 679.88C1094.07 679.88 1096 677.49 1095.92 676.88L1091.92 678.6C1091.92 678.6 1093.29 681.5 1092.21 683.91C1092.21 683.91 1092.08 678.7 1091.31 678.83C1091.15 678.83 1089.22 679.83 1089.22 679.83C1089.22 679.83 1091.58 684.89 1089.8 688.56C1089.8 688.56 1090.48 682.33 1088.48 680.2L1085.65 681.85C1085.65 681.85 1088.41 687.07 1086.54 691.33C1086.54 691.33 1087.02 684.8 1085.05 682.25L1082.49 684.25C1082.49 684.25 1085.08 689.4 1083.49 692.93C1083.49 692.93 1083.28 685.33 1081.92 684.75C1080.95 685.574 1080.08 686.51 1079.33 687.54C1079.33 687.54 1081.11 691.28 1080.01 693.25C1080.01 693.25 1079.33 688.18 1078.78 688.16C1078.78 688.16 1076.54 691.52 1076.31 693.82C1076.42 691.686 1077.08 689.617 1078.24 687.82C1076.95 688.063 1075.76 688.678 1074.81 689.59C1074.81 689.59 1075.16 687.22 1078.81 687.01C1078.81 687.01 1080.66 684.46 1081.15 684.31C1081.15 684.31 1077.54 684.01 1075.35 684.98C1075.35 684.98 1077.28 682.74 1081.81 683.75L1084.35 681.69C1084.35 681.69 1079.59 681.04 1077.58 681.76C1077.58 681.76 1079.9 679.76 1085.03 681.22L1087.79 679.57C1085.67 679.105 1083.49 678.917 1081.32 679.01C1081.32 679.01 1083.87 677.64 1088.59 679.13L1090.59 678.24C1090.59 678.24 1087.59 677.66 1086.75 677.57C1085.91 677.48 1085.83 677.23 1085.83 677.23C1087.71 676.917 1089.64 677.132 1091.41 677.85C1091.41 677.85 1095.52 676.31 1095.45 676.04Z" fill="#E91E63"/>
<path opacity="0.1" d="M1079.04 699.91C1088.36 699.91 1095.91 698.634 1095.91 697.06C1095.91 695.486 1088.36 694.21 1079.04 694.21C1069.72 694.21 1062.17 695.486 1062.17 697.06C1062.17 698.634 1069.72 699.91 1079.04 699.91Z" fill="#673AB7"/>
<path d="M954.76 690.54C954.76 690.54 925.98 688.8 929.38 708.97C929.203 709.992 929.355 711.044 929.813 711.974C930.271 712.905 931.012 713.667 931.93 714.15C931.93 714.15 931.93 712.66 934.88 713.15C935.914 713.323 936.964 713.376 938.01 713.31C939.42 713.207 940.759 712.653 941.83 711.73C941.83 711.73 949.92 708.39 953.07 695.16C953.07 695.16 955.4 692.28 955.3 691.54L950.45 693.61C950.45 693.61 952.11 697.12 950.8 700.03C950.8 700.03 950.65 693.74 949.71 693.89C949.52 693.89 947.19 695.1 947.19 695.1C947.19 695.1 950.04 701.21 947.89 705.64C947.89 705.64 948.71 698.12 946.3 695.54L942.88 697.54C942.88 697.54 946.21 703.84 943.95 708.99C943.95 708.99 944.53 701.1 942.16 697.99L939.06 700.4C939.06 700.4 942.2 706.61 940.29 710.88C940.29 710.88 940.04 701.7 938.39 701C938.39 701 935.68 703.39 935.27 704.37C935.27 704.37 937.41 708.88 936.08 711.26C936.08 711.26 935.27 705.15 934.6 705.12C934.6 705.12 931.9 709.17 931.6 711.95C931.735 709.382 932.538 706.893 933.93 704.73C932.374 705.026 930.939 705.77 929.8 706.87C929.8 706.87 930.22 704 934.6 703.75C934.6 703.75 936.83 700.68 937.43 700.49C937.43 700.49 933.07 700.13 930.43 701.3C930.43 701.3 932.75 698.59 938.22 699.82L941.28 697.33C941.28 697.33 935.55 696.54 933.11 697.41C933.11 697.41 935.91 695.02 942.11 696.76L945.44 694.76C945.44 694.76 940.55 693.7 937.63 694.08C937.63 694.08 940.71 692.43 946.41 694.22L948.8 693.24C948.8 693.24 945.22 692.54 944.17 692.43C943.12 692.32 943.07 692.03 943.07 692.03C945.34 691.652 947.669 691.912 949.8 692.78C949.8 692.78 954.85 690.86 954.76 690.54Z" fill="#E91E63"/>
<path opacity="0.1" d="M934.94 719.35C946.19 719.35 955.31 717.81 955.31 715.91C955.31 714.01 946.19 712.47 934.94 712.47C923.69 712.47 914.57 714.01 914.57 715.91C914.57 717.81 923.69 719.35 934.94 719.35Z" fill="#673AB7"/>
<path opacity="0.1" d="M714.07 701L613.76 739.81L467.14 796.48C461.61 786.21 453.45 772.16 443.35 755.48C408.63 697.93 351.17 608.42 300.03 529.76C242.39 441.13 192.79 366.29 192.79 366.29L228.7 355.88L522.02 270.81L714.07 701Z" fill="black"/>
<path d="M716.07 694L615.76 732.81L469.14 789.48C463.61 779.21 455.45 765.16 445.35 748.48C410.63 690.93 353.17 601.42 302.03 522.76C244.39 434.13 194.79 359.29 194.79 359.29L230.7 348.88L524.02 263.81L716.07 694Z" fill="white"/>
<path opacity="0.1" d="M716.07 694L615.76 732.81C559.735 744.48 502.564 749.737 445.35 748.48C410.63 690.93 353.17 601.42 302.03 522.76L230.7 348.88L524.02 263.81L716.07 694Z" fill="black"/>
<path d="M790.7 669.86C790.7 669.86 634.86 762.04 402.2 741.24L216.7 289.05L305.59 273.78L612.87 221.01L787.22 661.12L790.7 669.86Z" fill="#673AB7"/>
<path opacity="0.1" d="M787.22 661.12C750.52 662.92 708.08 662.75 665.36 657.66C619.14 652.24 572.7 641.02 532.8 620.48C499.48 603.31 470.99 584.66 446.14 562.27C381.53 504.15 341.54 421.01 305.63 273.78L612.91 221.01L787.22 661.12Z" fill="black"/>
<path d="M901.53 635.84C901.53 635.84 786.61 658.36 669.75 644.49C623.53 639.04 577.04 627.85 537.19 607.31C503.87 590.14 475.38 571.49 450.53 549.1C370.53 477.1 328.32 366.88 284.78 144.19C284.78 144.19 475.78 190.28 664.49 89.32C664.49 89.32 728.14 486.59 901.53 635.84Z" fill="white"/>
<path opacity="0.1" d="M669.75 644.49C623.53 639.04 577.04 627.85 537.19 607.31C503.87 590.14 475.38 571.49 450.53 549.1C518.62 543.57 528.41 506.34 528.41 506.34C578.89 586.46 669.75 644.49 669.75 644.49Z" fill="black"/>
<path opacity="0.3" d="M383.55 225.95C383.55 225.95 486.15 237.66 582.18 183.7L588.76 204.83C588.76 204.83 496.89 250.64 383.55 250.64V225.95Z" fill="#673AB7"/>
<path opacity="0.3" d="M383.55 330.24C383.55 330.24 485.55 322.01 599.1 267.13L602.94 275.91C602.94 275.91 561.15 328.5 383.55 342.24V330.24Z" fill="black"/>
<path opacity="0.3" d="M395.64 370.92C395.64 370.92 497.64 362.69 611.19 307.82L615.03 316.6C615.03 316.6 573.25 369.24 395.64 382.99V370.92Z" fill="black"/>
<path opacity="0.3" d="M406.7 414.77C406.7 414.77 508.7 406.54 622.25 351.67L626.09 360.45C626.09 360.45 584.25 413.06 406.7 426.84V414.77Z" fill="black"/>
<path opacity="0.3" d="M419.83 452.35C419.83 452.35 521.83 444.12 635.38 389.25L639.22 398.03C639.22 398.03 597.44 450.65 419.83 464.43V452.35Z" fill="black"/>
<path opacity="0.1" d="M431.93 493.07C431.93 493.07 533.93 484.84 647.48 429.97L651.32 438.75C651.32 438.75 609.53 491.37 431.93 505.14V493.07Z" fill="black"/>
<path opacity="0.3" d="M644.49 239.746L615.949 249.463L625.665 278.004L654.207 268.288L644.49 239.746Z" fill="#673AB7"/>
<path opacity="0.3" d="M660.727 282.207L632.186 291.924L641.902 320.465L670.444 310.749L660.727 282.207Z" fill="#673AB7"/>
<path opacity="0.3" d="M686.757 363.907L658.216 373.623L667.932 402.165L696.473 392.448L686.757 363.907Z" fill="#673AB7"/>
<path opacity="0.3" d="M701.692 407.756L673.15 417.472L682.867 446.014L711.408 436.297L701.692 407.756Z" fill="#673AB7"/>
<path opacity="0.3" d="M673.966 326.317L645.425 336.034L655.141 364.575L683.682 354.859L673.966 326.317Z" fill="#673AB7"/>
<path d="M972.4 449.57L971.33 448.57C974.09 448.01 976.69 447.76 976.69 447.76C976.69 447.76 967.22 413.5 951.25 402.07C943.35 396.42 936.77 387.01 932.12 378.94C923.644 364.348 914.122 350.388 903.63 337.17L900.75 333.54L899.51 331.96C901.24 329.34 903.36 326.85 903.12 323.81C903.115 323.79 903.115 323.77 903.12 323.75C903.13 323.59 903.13 323.43 903.12 323.27C903.091 322.894 903.024 322.522 902.92 322.16L902.81 322.33C901.46 318.41 896.27 316.68 892.42 314.52C883.42 309.45 879.57 298.37 877.65 288.07C876.15 280.07 874.91 271.07 868.65 265.92C864.65 262.61 859.21 261.52 855.18 258.23C851.36 255.11 849.23 250.38 846.83 246.03C842.83 238.78 837.55 232.03 830.58 227.7C823.61 223.37 814.76 221.7 807.11 224.6C804.18 225.72 801.52 227.46 798.62 228.67C791.42 231.67 783.17 231.27 776.04 234.44C767.26 238.34 761.55 246.96 756.33 255.14C753.63 259.37 749.39 265.56 746.98 271.79C746.98 271.57 746.98 271.36 746.98 271.14C745.824 273.885 745.193 276.822 745.12 279.8C745.073 281.067 745.211 282.333 745.53 283.56C746.61 287.56 749.83 289.77 753.65 291.31C753.871 292.582 754.165 293.841 754.53 295.08C756.259 300.77 759.334 305.959 763.494 310.208C767.655 314.458 772.778 317.641 778.43 319.49C778.76 319.61 779.1 319.69 779.43 319.79C779.708 320.582 780.11 321.324 780.62 321.99C783.81 325.99 790.21 324.85 794.37 321.94C794.54 321.83 794.7 321.69 794.86 321.57C794.888 322.136 794.948 322.701 795.04 323.26C795.13 323.74 795.2 324.26 795.3 324.69C799.05 344.9 808.65 355.81 808.65 355.81C808.65 355.81 809.54 357.15 810.99 359.37C810.23 370.52 815.32 380.68 821.2 388.53C816.13 391.46 805.2 397.2 798.44 396.72C798.44 396.72 773.6 399.93 770.72 398.32C770.32 398.1 769.94 398.4 769.58 399.08C762.74 394.91 740.87 382.89 739 398.32C737.31 412.32 757.24 414.11 766.73 414.18C766.3 418.28 766.06 421.56 766.06 421.56L806.87 418.77L828.12 415.64C825.77 418.75 823.12 421.52 820.53 422.87C820.53 422.87 801.32 438.42 798 438.56C797.53 438.56 797.38 439.03 797.45 439.78C789.37 439.78 764.24 440.95 771.21 454.95C777.54 467.64 795.36 458.86 803.42 454.01C805.32 457.7 806.94 460.59 806.94 460.59L839.87 437.14L847 431.14C849.417 431.024 851.804 430.562 854.09 429.77C854.09 429.86 854.16 429.95 854.19 430.03C854.445 430.766 854.635 431.522 854.76 432.29C856.76 443.78 850.04 470.58 850.04 470.58C850.04 470.58 835.26 508.27 842.36 513.41C849.46 518.55 844.21 540.24 844.21 540.24C845.449 542.325 846.875 544.293 848.47 546.12C849.222 546.988 850.056 547.782 850.96 548.49C850.63 549.389 850.356 550.307 850.14 551.24C849.055 555.861 849.465 560.707 851.31 565.08C856.19 576.92 853.22 594.08 853.22 594.08L843.64 658.8C839.04 658.1 833.1 657.52 830.89 658.8C827.5 660.71 828.61 670.34 836.48 674.48C834.091 676.309 831.324 677.584 828.38 678.21C821.38 679.81 816.46 680.83 813.22 681.45C813.01 681.45 796.42 677.79 792.16 680.21C787.9 682.63 789.95 696.05 802.07 699.34C813.93 702.55 858.16 707.26 870.9 705.34L871.71 705.2C882.54 703.06 873.03 688.83 871.83 687.1C871.75 686.52 871.68 685.91 871.6 685.25C871.43 683.77 871.28 682.07 871.17 680.25C883.25 681.36 895.17 681.9 900.64 681.08C900.9 681.08 901.14 681 901.36 680.95C910.95 679.05 902.55 666.47 901.47 664.95C901.423 664.563 901.373 664.153 901.32 663.72V663.61C901.32 663.32 901.25 663.01 901.22 662.71C901.19 662.41 901.22 662.2 901.14 661.93C901.06 661.66 901.14 661.45 901.07 661.2C901.03 660.707 900.99 660.197 900.95 659.67C900.95 659.46 900.95 659.24 900.95 659.02C900.95 658.62 900.9 658.22 900.88 657.81C900.88 657.59 900.88 657.37 900.88 657.14C900.88 656.54 900.88 655.92 900.82 655.3C900.82 655.13 900.82 654.96 900.82 654.79C900.82 654.29 900.82 653.79 900.82 653.27C900.82 653.03 900.82 652.79 900.82 652.54C900.82 652.01 900.82 651.48 900.82 650.94C900.82 650.76 900.82 650.59 900.82 650.41C900.82 649.74 900.88 649.05 900.92 648.36L900.98 647.62C900.98 647.11 901.06 646.62 901.11 646.1C901.11 645.85 901.11 645.6 901.19 645.35C901.27 644.65 901.36 643.95 901.46 643.24C901.46 643.03 901.53 642.82 901.56 642.61C901.65 642.08 901.74 641.54 901.84 641C901.84 640.74 901.94 640.47 902 640.2C902.12 639.62 902.25 639.04 902.39 638.46C902.39 638.3 902.46 638.14 902.5 637.98C902.68 637.28 902.88 636.59 903.09 635.9C903.16 635.66 903.24 635.42 903.32 635.18C903.49 634.66 903.67 634.18 903.86 633.64L904.1 633C904.37 632.32 904.66 631.65 904.96 631C905.04 630.83 905.13 630.66 905.22 630.49C905.47 629.97 905.74 629.49 906.02 628.95L906.36 628.36C906.74 627.72 907.13 627.08 907.56 626.47C918.56 610.79 921.46 580.55 921.19 573.97C920.92 567.39 922.5 553.74 924.47 551.72C925.79 550.37 933.47 539.72 938.06 531.62C938.89 530.14 939.61 528.75 940.18 527.51C943.44 526.38 945.6 525.51 945.6 525.51C944.451 521.312 943.899 516.972 943.96 512.62C944.04 504.11 946.38 492.9 956.04 483.8C970.3 470.36 972.29 457.04 972.48 451.92C972.48 451.56 972.48 451.24 972.48 450.97C972.45 450.03 972.4 449.57 972.4 449.57Z" fill="url(#paint0_linear)"/>
<path d="M934.4 533.44C930.53 540.355 926.186 546.994 921.4 553.31C919.52 555.31 918.01 568.82 918.27 575.31C918.53 581.8 915.78 611.72 905.27 627.22C894.76 642.72 900.16 669.51 900.16 669.51L883.39 675.39H863.24L849.36 671.24L845.7 661.14C845.7 661.14 850.58 660.39 862.7 657.51C866.062 656.825 869.108 655.061 871.373 652.484C873.639 649.908 875.001 646.662 875.25 643.24L883.76 583.81C883.76 583.81 886.27 568.81 882.13 558.43C880.964 555.509 880.48 552.359 880.716 549.223C880.952 546.086 881.9 543.044 883.49 540.33L883.76 539.91C883.76 539.91 896.89 529.54 910.27 523.05C922.12 517.33 934.14 514.61 937.55 524.76C937.99 526.07 936.55 529.44 934.4 533.44Z" fill="#A5636D"/>
<path opacity="0.05" d="M934.4 533.44C930.53 540.355 926.186 546.994 921.4 553.31C919.52 555.31 918.01 568.82 918.27 575.31C918.53 581.8 915.78 611.72 905.27 627.22C897.87 638.15 898.36 654.67 899.27 663.48C899.66 667.17 900.14 669.48 900.14 669.48L883.37 675.36H863.24L849.36 671.24L845.7 661.14C845.7 661.14 846.92 660.95 849.7 660.41C852.48 659.87 856.7 658.95 862.76 657.51C866.111 656.814 869.143 655.044 871.397 652.469C873.651 649.894 875.004 646.653 875.25 643.24L883.76 583.81C883.76 583.81 886.27 568.81 882.13 558.43C880.964 555.509 880.48 552.359 880.716 549.223C880.952 546.086 881.9 543.044 883.49 540.33L883.76 539.91C883.76 539.91 896.89 529.54 910.27 523.05C922.12 517.33 934.14 514.61 937.55 524.76C937.99 526.07 936.55 529.44 934.4 533.44Z" fill="black"/>
<path opacity="0.1" d="M900.16 669.52L883.39 675.4H863.24L849.36 671.24L845.7 661.14C845.7 661.14 846.92 660.95 849.7 660.41C849.504 662.245 849.986 664.089 851.057 665.592C852.127 667.096 853.712 668.155 855.51 668.57L863.39 668.84C864.5 668.84 865.62 668.9 866.72 668.9C877.804 668.906 888.813 667.078 899.3 663.49C899.7 667.18 900.16 669.52 900.16 669.52Z" fill="black"/>
<path d="M863.38 670.54L855.49 670.27C855.49 670.27 848.13 668.71 849.93 660.36C849.93 660.36 835.73 657.14 832.1 659.27C828.47 661.4 830.22 673.15 840.48 676.03C850.48 678.84 887.94 682.97 898.71 681.28L899.4 681.16C909.16 679.16 899.4 665.16 899.4 665.16C887.819 669.124 875.614 670.947 863.38 670.54Z" fill="#BEBED0"/>
<path d="M911.97 535.74C911.44 536.8 910.87 537.9 910.22 539.05C905.27 548.05 897.33 559.38 895.94 560.85C893.82 563.11 892.13 578.35 892.4 585.71C892.67 593.07 889.59 626.79 877.73 644.29C871.66 653.29 870.29 665.54 870.39 675.4C870.42 678.741 870.617 682.079 870.98 685.4C871.42 689.47 871.98 692.01 871.98 692.01L853.06 698.64H830.29L814.62 693.98L810.52 682.54C810.52 682.54 811.89 682.32 814.97 681.71C818.05 681.1 822.85 680.08 829.71 678.46C833.495 677.677 836.922 675.682 839.472 672.777C842.021 669.872 843.555 666.215 843.84 662.36L853.43 595.29C853.43 595.29 856.26 578.34 851.6 566.64C849.841 562.297 849.45 557.521 850.48 552.95C851.038 550.382 852.054 547.937 853.48 545.73C853.48 545.73 857.14 542.85 862.66 539.04C865.1 537.36 867.93 535.5 870.97 533.62C884.33 525.35 901.9 516.91 910.32 523.06C912.177 524.461 913.537 526.42 914.2 528.65C914.54 529.81 913.59 532.44 911.97 535.74Z" fill="#A5636D"/>
<path opacity="0.1" d="M871.93 692.02L853.01 698.65H830.29L814.62 693.99L810.52 682.55C810.52 682.55 811.89 682.33 814.97 681.72C814.773 683.075 814.913 684.459 815.377 685.747C815.841 687.036 816.615 688.191 817.63 689.11C819.207 690.45 821.201 691.2 823.27 691.23L830.44 691.46C831.69 691.46 832.95 691.53 834.2 691.53C846.713 691.527 859.14 689.459 870.98 685.41C871.42 689.48 871.93 692.02 871.93 692.02Z" fill="black"/>
<path d="M830.43 693.16L823.27 692.92C821.199 692.885 819.203 692.136 817.62 690.8C815.8 689.18 814.23 686.38 815.25 681.67C815.25 681.67 799.25 678.04 795.12 680.44C790.99 682.84 793.01 696.11 804.58 699.36C815.91 702.53 858.15 707.19 870.31 705.29L871.08 705.15C882.08 702.89 871.08 687.07 871.08 687.07C858.014 691.558 844.238 693.622 830.43 693.16Z" fill="#BEBED0"/>
<path opacity="0.1" d="M934.4 533.44C927.55 535.83 917.49 539 911.97 539.13C911.399 539.152 910.827 539.125 910.26 539.05C906.4 538.52 894.47 539.37 883.53 540.35C879.14 540.74 874.92 541.15 871.43 541.51C866.23 542.05 862.65 542.44 862.65 542.44V539.05C865.09 537.37 867.92 535.51 870.96 533.63C884.32 525.36 901.89 516.92 910.31 523.07C922.16 517.35 934.18 514.63 937.59 524.78C937.99 526.07 936.55 529.44 934.4 533.44Z" fill="black"/>
<path d="M967.27 454.57C967.08 459.64 965.18 472.8 951.56 486.1C934.2 503.05 941.56 527.39 941.56 527.39C941.56 527.39 920.86 535.52 911.93 535.74C911.359 535.762 910.787 535.735 910.22 535.66C904.86 534.91 883.58 536.88 871.35 538.12C866.15 538.66 862.57 539.05 862.57 539.05V467.05L958.5 443.76L967.19 452.41C967.265 453.127 967.292 453.849 967.27 454.57Z" fill="#5C5C8E"/>
<g opacity="0.1">
<path opacity="0.1" d="M864.19 538.16L862.61 538.33V539.09C862.61 539.09 866.19 538.7 871.39 538.16C880.17 537.27 893.58 536.02 902.45 535.65C896.31 535.09 876.03 536.96 864.19 538.16Z" fill="black"/>
<path opacity="0.1" d="M967.23 452.45L958.54 443.79L952.75 445.24L960.03 452.49C960.079 453.212 960.079 453.938 960.03 454.66C959.84 459.72 957.94 472.89 944.32 486.19C926.96 503.13 934.32 527.48 934.32 527.48C934.32 527.48 917.19 534.2 907.38 535.59C908.315 535.587 909.25 535.637 910.18 535.74C910.746 535.819 911.318 535.849 911.89 535.83C920.82 535.61 941.52 527.48 941.52 527.48C941.52 527.48 934.12 503.13 951.52 486.19C965.14 472.89 967.04 459.72 967.23 454.66C967.281 453.924 967.281 453.186 967.23 452.45Z" fill="black"/>
</g>
<path d="M775.57 403.71C775.57 403.71 746.57 383.59 744.44 401.71C742.31 419.83 775.57 417.24 775.57 417.24V403.71Z" fill="#A5636D"/>
<path d="M825.57 390.37C825.57 390.37 809.88 400.75 801.2 400.11C801.2 400.11 777.48 403.29 774.72 401.7C771.96 400.11 770.28 424.7 770.28 424.7L809.28 421.95L834.28 418.13C834.28 418.13 846.78 410.51 846.78 403.94C846.78 397.37 825.57 390.37 825.57 390.37Z" fill="#F7CDDD"/>
<path opacity="0.05" d="M825.57 390.37C825.57 390.37 809.88 400.75 801.2 400.11C801.2 400.11 777.48 403.29 774.72 401.7C771.96 400.11 770.28 424.7 770.28 424.7L809.28 421.95L834.28 418.13C834.28 418.13 846.78 410.51 846.78 403.94C846.78 397.37 825.57 390.37 825.57 390.37Z" fill="black"/>
<path d="M802.56 442.73C802.56 442.73 767.29 441.27 775.19 457.73C783.09 474.19 809.82 454.21 809.82 454.21L802.56 442.73Z" fill="#A5636D"/>
<path d="M838.04 407.74C838.04 407.74 809.45 386.35 813.48 360.3C817.51 334.25 838.04 380.24 838.04 380.24V407.74Z" fill="#5C5C8E"/>
<path d="M830.14 289.64C830.13 299.011 826.484 308.013 819.97 314.75C818.384 316.406 816.636 317.896 814.75 319.2C811.15 321.71 807.135 323.566 802.89 324.68C801.203 325.101 799.489 325.405 797.76 325.59C796.52 325.71 795.27 325.78 794 325.78C789.945 325.803 785.915 325.127 782.09 323.78C775.828 321.594 770.288 317.727 766.077 312.603C761.866 307.478 759.147 301.293 758.217 294.726C757.287 288.159 758.182 281.463 760.805 275.37C763.427 269.278 767.675 264.025 773.084 260.186C778.493 256.348 784.854 254.072 791.471 253.607C798.087 253.143 804.703 254.509 810.596 257.555C816.488 260.6 821.428 265.209 824.875 270.875C828.322 276.542 830.144 283.047 830.14 289.68V289.64Z" fill="#A5636D"/>
<path opacity="0.1" d="M967.27 454.57C964.03 455.17 960.03 456.25 960.03 457.93C960.03 460.76 914.85 476.01 914.85 476.01C914.85 476.01 916.54 479.95 912.03 486.73C907.52 493.51 870.8 532.47 870.8 532.47L870.92 533.63L871.39 538.12L873.63 559.58C873.63 559.58 859.51 554.5 854.99 555.06C853.53 555.25 851.99 554.31 850.48 552.96C851.038 550.392 852.054 547.947 853.48 545.74C853.48 545.74 857.14 542.86 862.66 539.05V467.05L958.59 443.76L967.28 452.41C967.325 453.129 967.322 453.851 967.27 454.57Z" fill="black"/>
<path d="M971.33 450.59C971.33 450.59 960.03 451.71 960.03 454.54C960.03 457.37 914.85 472.62 914.85 472.62C914.85 472.62 916.54 476.56 912.03 483.34C907.52 490.12 870.8 529.09 870.8 529.09L873.63 556.19C873.63 556.19 859.51 551.11 854.99 551.67C852.99 551.92 850.74 550.06 848.89 547.89C847.361 546.08 845.999 544.135 844.82 542.08C844.82 542.08 849.91 520.61 843.13 515.53C836.35 510.45 850.47 473.18 850.47 473.18C850.47 473.18 856.85 446.68 854.97 435.31C854.854 434.549 854.673 433.8 854.43 433.07C854.43 432.99 854.38 432.9 854.35 432.82C850.35 421.96 806.99 330.82 806.99 330.82C807.017 328.235 807.198 325.654 807.53 323.09C807.62 322.38 807.74 321.64 807.87 320.89C808.09 319.542 808.384 318.206 808.75 316.89C808.98 316.046 809.253 315.215 809.57 314.4C810.91 310.96 812.96 308.31 816.02 308.25C816.02 308.25 819.41 304.5 827.36 303.48C833.18 302.72 841.49 303.48 852.74 308.25C879.27 319.53 885.49 320.11 885.49 320.11L898.82 337.61L901.56 341.2C911.604 354.3 920.697 368.102 928.77 382.5C933.21 390.5 939.5 399.79 947.04 405.38C962.29 416.71 971.33 450.59 971.33 450.59Z" fill="#F7CDDD"/>
<path opacity="0.1" d="M872.35 385.29C872.35 385.29 910.05 394.61 924.66 418.11L872.35 385.29Z" fill="black"/>
<path opacity="0.1" d="M884 426.58C884 426.58 891.13 474.45 889.15 478.05C887.17 481.65 884 426.58 884 426.58Z" fill="black"/>
<path opacity="0.1" d="M881.45 451.15C878.71 454.74 867.58 482.49 867.58 482.49L870.79 529.09L873.62 556.19C873.62 556.19 859.51 551.11 854.99 551.67C852.99 551.92 850.73 550.06 848.89 547.89C851.82 532.02 858.09 498.81 859.22 498.17C860.71 497.32 868.34 470.64 868.74 463.17C869.14 455.7 879.74 439.05 879.74 439.05C879.74 439.05 884.21 447.56 881.45 451.15Z" fill="black"/>
<path opacity="0.1" d="M870.8 405.41C870.1 407.52 869.02 419.81 869.02 419.81C868.24 430.63 860.02 434.17 854.97 435.31C854.854 434.549 854.673 433.8 854.43 433.07C851.04 423.48 806.99 330.86 806.99 330.86C807.036 326.161 807.627 321.483 808.75 316.92C818.34 314.1 833.52 318.44 833.52 318.44C837.91 317.86 852.23 346.33 852.23 346.33C852.23 346.33 861.77 368.13 862.82 371.1C863.87 374.07 862.82 378.94 863.24 380.64C863.66 382.34 868.12 383.8 868.75 386.14C869.38 388.48 868.97 393.14 869.39 393.97C869.81 394.8 871.51 403.29 870.8 405.41Z" fill="black"/>
<path d="M867.41 403.71C866.71 405.83 865.63 418.11 865.63 418.11C864.99 427.11 859.19 431.11 854.35 432.82C852.168 433.6 849.884 434.055 847.57 434.17L840.76 440.09L809.31 463.24C809.31 463.24 797.59 441.57 800.77 441.45C803.95 441.33 822.29 425.93 822.29 425.93C827.9 422.93 833.52 412.93 836.13 407.79C835.98 407.177 835.866 406.556 835.79 405.93C834.66 396.34 810.94 359.62 810.94 359.62C810.94 359.62 801.77 348.83 798.2 328.84C798.1 328.38 798.03 327.91 797.94 327.43C797.839 326.808 797.779 326.18 797.76 325.55C797.33 317.86 802.93 315.06 809.57 314.4C813.038 314.125 816.526 314.232 819.97 314.72C823.402 315.152 826.8 315.821 830.14 316.72C832.98 316.34 839.98 328.15 844.57 336.52C847.04 341.06 848.82 344.6 848.82 344.6C848.82 344.6 858.36 366.41 859.41 369.37C860.46 372.33 859.41 377.22 859.83 378.91C860.25 380.6 864.71 382.08 865.34 384.42C865.97 386.76 865.56 391.42 865.98 392.25C866.4 393.08 868.12 401.59 867.41 403.71Z" fill="#F7CDDD"/>
<path opacity="0.1" d="M903.89 354.85C897.89 360.98 888.2 361 880.42 357.85C872.64 354.7 866.05 349.06 858.84 344.67C854.16 341.81 849.2 339.47 844.59 336.52C843.91 336.08 843.25 335.64 842.59 335.18C837.27 331.42 832.66 326.59 827.15 323.18C823.465 320.729 819.173 319.344 814.75 319.18C812.714 319.162 810.697 319.585 808.84 320.42C808.496 320.56 808.162 320.724 807.84 320.91C806.026 321.95 804.347 323.21 802.84 324.66C801.28 326.06 799.79 327.55 798.15 328.86C798.05 328.4 797.98 327.93 797.89 327.45C797.789 326.828 797.729 326.2 797.71 325.57C796.47 325.69 795.22 325.76 793.95 325.76C789.895 325.783 785.865 325.107 782.04 323.76C782.04 323.61 782.04 323.46 781.95 323.31C780.6 316.19 778.16 308.65 772.43 304.65C769.11 302.33 763.81 301.38 759.21 299.65C757.616 294.101 757.375 288.251 758.506 282.59C759.637 276.928 762.108 271.62 765.712 267.11C769.317 262.6 773.949 259.019 779.221 256.667C784.494 254.315 790.253 253.26 796.017 253.591C801.781 253.922 807.381 255.629 812.35 258.569C817.318 261.509 821.51 265.597 824.575 270.49C827.639 275.383 829.486 280.939 829.962 286.692C830.438 292.446 829.529 298.23 827.31 303.56C833.13 302.8 841.44 303.56 852.69 308.33C879.22 319.61 885.44 320.19 885.44 320.19L898.77 337.69C897.33 339.89 895.7 342.06 895.55 344.63C895.3 349.34 899.89 352.63 903.89 354.85Z" fill="black"/>
<path d="M772.47 301.24C778.2 305.24 780.64 312.77 782 319.88C782.42 322.1 782.82 324.44 784.18 326.2C787.18 330.14 793.34 329.03 797.31 326.2C801.28 323.37 804.41 319.08 808.84 317.08C814.72 314.42 821.64 316.36 827.15 319.81C832.66 323.26 837.27 328.09 842.59 331.81C847.74 335.44 853.48 338.03 858.84 341.3C866.05 345.69 872.64 351.36 880.42 354.48C888.2 357.6 897.92 357.59 903.88 351.48C899.88 349.26 895.29 345.98 895.6 341.22C895.91 336.46 901.45 332.91 901.08 328.03C900.71 323.15 894.97 321.24 890.85 318.84C882.25 313.84 878.58 302.84 876.74 292.69C875.31 284.75 874.13 275.88 868.2 270.78C864.37 267.5 859.2 266.43 855.34 263.18C851.69 260.09 849.66 255.42 847.34 251.11C843.51 243.94 838.48 237.27 831.83 232.98C825.18 228.69 816.72 226.98 809.42 229.92C806.62 231.03 804.07 232.75 801.31 233.92C794.43 236.92 786.56 236.49 779.75 239.62C771.36 243.48 765.91 252 760.92 260.09C756.7 267.02 748.33 279.24 750.7 288.24C753.06 297.39 766.25 296.9 772.47 301.24Z" fill="#4C3E42"/>
<g opacity="0.1">
<path opacity="0.1" d="M901.07 327.48C901.039 327.108 900.976 326.74 900.88 326.38C899.36 328.77 897.47 331.09 897.29 333.89C897.251 334.538 897.305 335.188 897.45 335.82C899.14 333.13 901.31 330.6 901.07 327.48Z" fill="black"/>
<path opacity="0.1" d="M882.11 347.18C874.33 344.06 867.75 338.39 860.54 334C855.17 330.73 849.43 328.14 844.28 324.51C838.96 320.75 834.35 315.92 828.84 312.51C823.33 309.1 816.42 307.12 810.53 309.77C806.1 311.77 802.98 316.02 799 318.9C795.02 321.78 788.92 322.9 785.87 318.9C784.51 317.14 784.11 314.8 783.69 312.58C782.34 305.47 779.89 297.94 774.17 293.94C767.94 289.59 754.75 290.08 752.36 280.94C751.961 279.305 751.856 277.612 752.05 275.94C750.52 280.02 749.73 284.12 750.66 287.69C753.06 296.87 766.25 296.38 772.47 300.69C778.2 304.69 780.64 312.23 782 319.34C782.42 321.56 782.82 323.9 784.17 325.66C787.17 329.6 793.33 328.49 797.31 325.61C801.29 322.73 804.4 318.49 808.84 316.49C814.72 313.84 821.64 315.78 827.15 319.23C832.66 322.68 837.27 327.51 842.59 331.23C847.74 334.87 853.48 337.45 858.84 340.72C866.05 345.12 872.64 350.79 880.42 353.91C888.2 357.03 897.92 357.01 903.88 350.91C902.338 350.082 900.876 349.114 899.51 348.02C894.09 350.01 887.62 349.39 882.11 347.18Z" fill="black"/>
</g>
<path d="M705.12 415.58L785.12 385.7C786.056 385.349 787.051 385.186 788.05 385.22C789.049 385.255 790.031 385.485 790.94 385.9C791.849 386.314 792.668 386.903 793.349 387.635C794.03 388.366 794.561 389.224 794.91 390.16C795.259 391.096 795.421 392.092 795.385 393.091C795.35 394.09 795.118 395.072 794.703 395.981C794.287 396.89 793.697 397.708 792.966 398.389C792.235 399.07 791.376 399.601 790.44 399.95L710.44 429.84L693.3 428.12L705.12 415.58Z" fill="#5C5C8E"/>
<path opacity="0.1" d="M792.48 387.76C793.186 389.652 793.111 391.748 792.273 393.585C791.435 395.423 789.902 396.852 788.01 397.56L708.01 427.44L695.13 426.15L693.28 428.15L710.42 429.87L790.42 399.98C791.356 399.631 792.215 399.1 792.946 398.419C793.677 397.738 794.268 396.92 794.683 396.011C795.098 395.102 795.33 394.12 795.365 393.121C795.401 392.122 795.239 391.126 794.89 390.19C794.304 388.613 793.21 387.276 791.78 386.39C792.055 386.824 792.29 387.283 792.48 387.76Z" fill="white"/>
<path d="M705.12 415.58L710.45 429.84L696.38 428.43L693.3 428.12L697.51 423.66L705.12 415.58Z" fill="#EFC8C4"/>
<path d="M697.5 423.66C697.831 423.902 698.11 424.208 698.32 424.56C698.453 424.768 698.523 425.009 698.523 425.255C698.523 425.501 698.453 425.742 698.32 425.95C698.09 426.172 697.827 426.358 697.54 426.5C697.216 426.714 696.944 426.999 696.747 427.333C696.549 427.667 696.43 428.043 696.4 428.43L693.32 428.12L697.5 423.66Z" fill="#727A9C"/>
<path d="M635.29 261.07L621.8 254.49C621.608 254.396 621.436 254.265 621.294 254.105C621.152 253.945 621.043 253.758 620.973 253.555C620.904 253.353 620.875 253.139 620.888 252.925C620.901 252.711 620.956 252.502 621.05 252.31L622.48 249.37C622.573 249.177 622.703 249.004 622.863 248.861C623.024 248.719 623.21 248.609 623.413 248.539C623.616 248.47 623.831 248.441 624.045 248.455C624.259 248.469 624.468 248.525 624.66 248.62L633.75 253.05L643.24 233.59C643.43 233.202 643.765 232.904 644.174 232.761C644.582 232.619 645.03 232.644 645.42 232.83L648.36 234.27C648.553 234.363 648.726 234.493 648.869 234.653C649.011 234.814 649.121 235.001 649.191 235.203C649.26 235.406 649.289 235.621 649.275 235.835C649.261 236.049 649.205 236.258 649.11 236.45L637.47 260.32C637.376 260.512 637.245 260.684 637.085 260.826C636.925 260.968 636.738 261.077 636.535 261.147C636.333 261.216 636.119 261.245 635.905 261.232C635.691 261.219 635.482 261.164 635.29 261.07Z" fill="#E91E63"/>
<path d="M664.76 345.24L651.27 338.66C651.078 338.566 650.906 338.435 650.764 338.275C650.622 338.115 650.513 337.928 650.443 337.725C650.374 337.523 650.345 337.309 650.358 337.095C650.371 336.881 650.426 336.672 650.52 336.48L651.95 333.54C652.142 333.151 652.48 332.853 652.89 332.713C653.301 332.572 653.75 332.6 654.14 332.79L663.22 337.22L672.7 317.74C672.89 317.352 673.225 317.054 673.634 316.911C674.042 316.769 674.49 316.794 674.88 316.98L677.81 318.42C678.003 318.513 678.176 318.643 678.319 318.803C678.462 318.963 678.572 319.15 678.642 319.352C678.713 319.555 678.743 319.769 678.731 319.983C678.718 320.197 678.664 320.407 678.57 320.6L666.93 344.47C666.736 344.857 666.398 345.153 665.989 345.293C665.579 345.434 665.13 345.407 664.74 345.22L664.76 345.24Z" fill="#E91E63"/>
<path d="M651.53 303.75L638.04 297.17C637.652 296.98 637.354 296.645 637.211 296.236C637.069 295.828 637.094 295.38 637.28 294.99L638.72 292.05C638.813 291.857 638.943 291.684 639.103 291.541C639.264 291.399 639.451 291.289 639.653 291.219C639.856 291.15 640.071 291.121 640.285 291.135C640.499 291.149 640.708 291.205 640.9 291.3L649.99 295.73L659.48 276.24C659.574 276.048 659.705 275.876 659.865 275.734C660.026 275.592 660.212 275.483 660.415 275.413C660.617 275.344 660.831 275.315 661.045 275.328C661.259 275.341 661.468 275.396 661.66 275.49L664.6 276.92C664.987 277.114 665.283 277.452 665.424 277.861C665.564 278.271 665.537 278.72 665.35 279.11L653.7 303C653.606 303.192 653.475 303.364 653.315 303.506C653.155 303.648 652.968 303.757 652.765 303.827C652.563 303.896 652.349 303.925 652.135 303.912C651.921 303.899 651.712 303.844 651.52 303.75H651.53Z" fill="#E91E63"/>
<path d="M677.56 383.24L664.07 376.66C663.878 376.566 663.706 376.435 663.564 376.275C663.422 376.115 663.313 375.928 663.243 375.725C663.174 375.523 663.145 375.309 663.158 375.095C663.171 374.881 663.226 374.672 663.32 374.48L664.75 371.54C664.844 371.348 664.975 371.176 665.135 371.034C665.296 370.892 665.482 370.783 665.685 370.713C665.887 370.644 666.101 370.615 666.315 370.628C666.529 370.641 666.738 370.696 666.93 370.79L676.02 375.22L685.51 355.76C685.702 355.371 686.039 355.073 686.449 354.931C686.859 354.788 687.308 354.813 687.7 355L690.63 356.44C690.823 356.533 690.996 356.663 691.139 356.823C691.281 356.984 691.391 357.17 691.461 357.373C691.53 357.576 691.559 357.791 691.545 358.005C691.531 358.219 691.475 358.428 691.38 358.62L679.75 382.49C679.556 382.877 679.218 383.173 678.809 383.313C678.399 383.454 677.95 383.427 677.56 383.24Z" fill="#E91E63"/>
<path d="M173.22 641.6C173.22 641.6 179.17 649.38 170.48 661.12C161.79 672.86 154.61 682.78 157.48 690.12C157.48 690.12 170.6 668.31 181.27 668.01C191.94 667.71 184.96 654.72 173.22 641.6Z" fill="#3ACC6C"/>
<path opacity="0.1" d="M173.22 641.6C173.741 642.351 174.152 643.173 174.44 644.04C184.85 656.28 190.44 667.7 180.39 668.04C171.06 668.3 159.87 684.98 157.2 689.19C157.28 689.53 157.384 689.864 157.51 690.19C157.51 690.19 170.63 668.38 181.3 668.08C191.97 667.78 184.96 654.72 173.22 641.6Z" fill="black"/>
<path d="M184.28 651.52C184.28 654.25 183.97 656.52 183.59 656.52C183.21 656.52 182.91 654.3 182.91 651.52C182.91 648.74 183.29 650.07 183.67 650.07C184.05 650.07 184.28 648.78 184.28 651.52Z" fill="#FFD037"/>
<path d="M188.07 654.78C185.67 656.09 183.57 656.89 183.39 656.55C183.21 656.21 185.01 654.89 187.39 653.55C189.77 652.21 188.84 653.19 189.02 653.55C189.2 653.91 190.48 653.47 188.07 654.78Z" fill="#FFD037"/>
<path d="M141.8 641.6C141.8 641.6 135.86 649.38 144.55 661.12C153.24 672.86 160.41 682.78 157.55 690.12C157.55 690.12 144.44 668.31 133.76 668.01C123.08 667.71 130.06 654.72 141.8 641.6Z" fill="#3ACC6C"/>
<path opacity="0.1" d="M141.8 641.6C141.285 642.353 140.878 643.174 140.59 644.04C130.17 656.28 124.59 667.7 134.64 668.04C143.96 668.3 155.15 684.98 157.83 689.19C157.746 689.53 157.639 689.864 157.51 690.19C157.51 690.19 144.4 668.29 133.7 667.99C123 667.69 130.06 654.72 141.8 641.6Z" fill="black"/>
<path d="M130.75 651.52C130.75 654.25 131.05 656.52 131.43 656.52C131.81 656.52 132.12 654.3 132.12 651.52C132.12 648.74 131.74 650.07 131.36 650.07C130.98 650.07 130.75 648.78 130.75 651.52Z" fill="#FFD037"/>
<path d="M126.95 654.78C129.36 656.09 131.45 656.89 131.63 656.55C131.81 656.21 130.01 654.89 127.63 653.55C125.25 652.21 126.17 653.19 125.99 653.55C125.81 653.91 124.55 653.47 126.95 654.78Z" fill="#FFD037"/>
<path opacity="0.1" d="M157.52 749.6C191.867 749.6 219.71 745.329 219.71 740.06C219.71 734.791 191.867 730.52 157.52 730.52C123.173 730.52 95.33 734.791 95.33 740.06C95.33 745.329 123.173 749.6 157.52 749.6Z" fill="#673AB7"/>
<path d="M189.52 679.62L189.22 682.05L188.81 685.48L188.63 686.91L188.22 690.34L188.03 691.77L187.62 695.2L182.86 734.2C182.43 737.68 176.74 740.4 169.86 740.4H145.15C138.28 740.4 132.6 737.68 132.15 734.2L127.39 695.2L126.97 691.77L126.8 690.34L126.37 686.91L126.2 685.48L125.78 682.05L125.48 679.62C125.25 677.62 128.32 675.98 132.21 675.98H182.8C186.7 675.98 189.77 677.65 189.52 679.62Z" fill="#65617D"/>
<path d="M189.23 682.05L188.81 685.48H126.22L125.81 682.05H189.23Z" fill="#9D9CB5"/>
<path d="M188.64 686.91L188.22 690.34H126.82L126.4 686.91H188.64Z" fill="#9D9CB5"/>
<path d="M188.04 691.77L187.62 695.2H127.41L126.99 691.77H188.04Z" fill="#9D9CB5"/>
</g>
<defs>
<linearGradient id="paint0_linear" x1="857.84" y1="705.73" x2="857.84" y2="223.12" gradientUnits="userSpaceOnUse">
<stop stop-color="#808080" stop-opacity="0.25"/>
<stop offset="0.54" stop-color="#808080" stop-opacity="0.12"/>
<stop offset="1" stop-color="#808080" stop-opacity="0.1"/>
</linearGradient>
<clipPath id="clip0">
<rect width="1155.41" height="796.48" fill="white"/>
</clipPath>
</defs>
</svg>
